<svg width="86" height="15" viewBox="0 0 86 15" fill="none" xmlns="http://www.w3.org/2000/svg">
<path fill-rule="evenodd" clip-rule="evenodd" d="M8.22335 0.341436C7.72747 0.106241 7.15219 0.10624 6.65631 0.341434C6.31302 0.504252 6.06951 0.812451 5.85373 1.16078C5.63679 1.51101 5.39877 1.98706 5.10237 2.57988L5.10236 2.5799L5.09076 2.60312L4.85186 3.08091C4.64861 3.48742 4.58951 3.59395 4.5153 3.67162C4.43876 3.75172 4.34699 3.81573 4.24536 3.85985C4.14682 3.90263 4.02643 3.92126 3.57473 3.97146L3.35787 3.99555L3.33184 3.99845H3.33184C2.61977 4.07756 2.05094 4.14076 1.62029 4.22835C1.19557 4.31474 0.799742 4.44263 0.522665 4.72533C0.126232 5.12979 -0.0604009 5.69515 0.0173119 6.25614C0.0716268 6.64823 0.313515 6.98667 0.603331 7.30895C0.89719 7.63569 1.31659 8.02519 1.84161 8.5127L1.86079 8.53053L2.08975 8.7431C2.48744 9.11239 2.58941 9.21685 2.64654 9.32808C2.70552 9.44298 2.73694 9.56998 2.7383 9.6991C2.73961 9.82398 2.69726 9.96647 2.51513 10.4856L2.50652 10.5101L2.50651 10.5102C2.23773 11.2761 2.02488 11.8828 1.90403 12.3548C1.78663 12.8132 1.72085 13.2634 1.8739 13.6533C2.08927 14.2019 2.55587 14.613 3.12721 14.7576C3.53207 14.8601 3.96656 14.7407 4.40268 14.5687C4.85039 14.3921 5.41731 14.1087 6.13211 13.7513L6.15551 13.7396L6.7113 13.4616C7.08604 13.2743 7.18837 13.2282 7.28657 13.2097C7.38784 13.1908 7.49183 13.1908 7.59309 13.2097C7.69129 13.2282 7.79362 13.2743 8.16836 13.4616L8.72415 13.7396L8.74762 13.7513C9.46239 14.1087 10.0293 14.3921 10.477 14.5687C10.9131 14.7407 11.3476 14.8601 11.7524 14.7576C12.3238 14.613 12.7904 14.2019 13.0058 13.6533C13.1588 13.2634 13.093 12.8132 12.9756 12.3548C12.8548 11.8828 12.6419 11.2761 12.3731 10.5101V10.51L12.3645 10.4856C12.1824 9.96647 12.1401 9.82398 12.1413 9.6991C12.1427 9.56998 12.1741 9.44298 12.2332 9.32808C12.2903 9.21685 12.3922 9.11239 12.7899 8.7431L13.0189 8.53053L13.0381 8.51264C13.5631 8.02513 13.9825 7.63569 14.2763 7.30895C14.5662 6.98667 14.808 6.64823 14.8624 6.25614C14.9401 5.69515 14.7535 5.12979 14.357 4.72533C14.0799 4.44263 13.6841 4.31474 13.2594 4.22835C12.8287 4.14076 12.2599 4.07756 11.5478 3.99845L11.5218 3.99555L11.305 3.97146C10.8532 3.92126 10.7328 3.90263 10.6343 3.85985C10.5327 3.81573 10.4409 3.75172 10.3644 3.67162C10.2902 3.59395 10.2311 3.48742 10.0278 3.08091L9.78892 2.60313L9.77728 2.5799C9.48087 1.98706 9.2429 1.51101 9.02595 1.16078C8.81019 0.812451 8.5667 0.504259 8.22335 0.341436Z" fill="#FFC250"/>
<path fill-rule="evenodd" clip-rule="evenodd" d="M25.863 0.341436C25.3671 0.106241 24.7918 0.10624 24.296 0.341434C23.9527 0.504252 23.7092 0.812451 23.4934 1.16078C23.2764 1.51101 23.0384 1.98706 22.742 2.57988L22.742 2.5799L22.7304 2.60312L22.4915 3.08091C22.2883 3.48742 22.2292 3.59395 22.155 3.67162C22.0784 3.75172 21.9866 3.81573 21.885 3.85985C21.7865 3.90263 21.6661 3.92126 21.2144 3.97146L20.9975 3.99555L20.9715 3.99845H20.9715C20.2594 4.07756 19.6906 4.14076 19.2599 4.22835C18.8352 4.31474 18.4394 4.44263 18.1623 4.72533C17.7659 5.12979 17.5792 5.69515 17.657 6.25614C17.7113 6.64823 17.9532 6.98667 18.243 7.30895C18.5368 7.63569 18.9562 8.02519 19.4813 8.5127L19.5004 8.53053L19.7294 8.7431C20.1271 9.11239 20.2291 9.21685 20.2862 9.32808C20.3452 9.44298 20.3766 9.56998 20.3779 9.6991C20.3793 9.82398 20.3369 9.96647 20.1548 10.4856L20.1462 10.5101L20.1462 10.5102C19.8774 11.2761 19.6645 11.8828 19.5437 12.3548C19.4263 12.8132 19.3605 13.2634 19.5135 13.6533C19.7289 14.2019 20.1955 14.613 20.7669 14.7576C21.1717 14.8601 21.6062 14.7407 22.0423 14.5687C22.49 14.3921 23.057 14.1087 23.7718 13.7513L23.7952 13.7396L24.3509 13.4616C24.7257 13.2743 24.828 13.2282 24.9262 13.2097C25.0275 13.1908 25.1315 13.1908 25.2327 13.2097C25.3309 13.2282 25.4333 13.2743 25.808 13.4616L26.3638 13.7396L26.3873 13.7513C27.102 14.1087 27.6689 14.3921 28.1166 14.5687C28.5527 14.7407 28.9872 14.8601 29.3921 14.7576C29.9634 14.613 30.4301 14.2019 30.6454 13.6533C30.7985 13.2634 30.7327 12.8132 30.6153 12.3548C30.4944 11.8828 30.2816 11.2761 30.0128 10.5101V10.51L30.0042 10.4856C29.8221 9.96647 29.7797 9.82398 29.781 9.6991C29.7824 9.56998 29.8138 9.44298 29.8728 9.32808C29.9299 9.21685 30.0318 9.11239 30.4296 8.7431L30.6585 8.53053L30.6777 8.51264C31.2027 8.02513 31.6222 7.63569 31.916 7.30895C32.2058 6.98667 32.4477 6.64823 32.502 6.25614C32.5797 5.69515 32.3931 5.12979 31.9966 4.72533C31.7196 4.44263 31.3237 4.31474 30.899 4.22835C30.4684 4.14076 29.8995 4.07756 29.1875 3.99845L29.1614 3.99555L28.9446 3.97146C28.4929 3.92126 28.3725 3.90263 28.274 3.85985C28.1723 3.81573 28.0806 3.75172 28.004 3.67162C27.9298 3.59395 27.8707 3.48742 27.6675 3.08091L27.4286 2.60313L27.4169 2.5799C27.1205 1.98706 26.8826 1.51101 26.6656 1.16078C26.4498 0.812451 26.2064 0.504259 25.863 0.341436Z" fill="#FFC250"/>
<path fill-rule="evenodd" clip-rule="evenodd" d="M43.5026 0.341436C43.0068 0.106241 42.4315 0.10624 41.9356 0.341434C41.5923 0.504252 41.3488 0.812451 41.133 1.16078C40.9161 1.51101 40.6781 1.98706 40.3817 2.57988L40.3817 2.5799L40.3701 2.60312L40.1312 3.08091C39.9279 3.48742 39.8688 3.59395 39.7946 3.67162C39.7181 3.75172 39.6263 3.81573 39.5247 3.85985C39.4261 3.90263 39.3057 3.92126 38.854 3.97146L38.6372 3.99555L38.6111 3.99845H38.6111C37.8991 4.07756 37.3302 4.14076 36.8996 4.22835C36.4749 4.31474 36.079 4.44263 35.802 4.72533C35.4055 5.12979 35.2189 5.69515 35.2966 6.25614C35.3509 6.64823 35.5928 6.98667 35.8826 7.30895C36.1765 7.63569 36.5959 8.02519 37.1209 8.5127L37.1401 8.53053L37.369 8.7431C37.7667 9.11239 37.8687 9.21685 37.9258 9.32808C37.9848 9.44298 38.0162 9.56998 38.0176 9.6991C38.0189 9.82398 37.9766 9.96647 37.7944 10.4856L37.7858 10.5101L37.7858 10.5102C37.517 11.2761 37.3042 11.8828 37.1833 12.3548C37.0659 12.8132 37.0001 13.2634 37.1532 13.6533C37.3686 14.2019 37.8352 14.613 38.4065 14.7576C38.8114 14.8601 39.2459 14.7407 39.682 14.5687C40.1297 14.3921 40.6966 14.1087 41.4114 13.7513L41.4348 13.7396L41.9906 13.4616C42.3653 13.2743 42.4677 13.2282 42.5659 13.2097C42.6671 13.1908 42.7711 13.1908 42.8724 13.2097C42.9706 13.2282 43.0729 13.2743 43.4477 13.4616L44.0034 13.7396L44.0269 13.7513C44.7417 14.1087 45.3086 14.3921 45.7563 14.5687C46.1924 14.7407 46.6269 14.8601 47.0317 14.7576C47.6031 14.613 48.0697 14.2019 48.2851 13.6533C48.4381 13.2634 48.3723 12.8132 48.2549 12.3548C48.1341 11.8828 47.9212 11.2761 47.6524 10.5101V10.51L47.6438 10.4856C47.4617 9.96647 47.4194 9.82398 47.4206 9.6991C47.422 9.56998 47.4534 9.44298 47.5125 9.32808C47.5696 9.21685 47.6715 9.11239 48.0692 8.7431L48.2982 8.53053L48.3174 8.51264C48.8424 8.02513 49.2618 7.63569 49.5556 7.30895C49.8455 6.98667 50.0873 6.64823 50.1417 6.25614C50.2194 5.69515 50.0328 5.12979 49.6363 4.72533C49.3592 4.44263 48.9634 4.31474 48.5387 4.22835C48.108 4.14076 47.5392 4.07756 46.8271 3.99845L46.8011 3.99555L46.5843 3.97146C46.1325 3.92126 46.0121 3.90263 45.9136 3.85985C45.812 3.81573 45.7202 3.75172 45.6437 3.67162C45.5695 3.59395 45.5104 3.48742 45.3071 3.08091L45.0682 2.60313L45.0566 2.5799C44.7602 1.98706 44.5222 1.51101 44.3052 1.16078C44.0895 0.812451 43.846 0.504259 43.5026 0.341436Z" fill="#FFC250"/>
<path fill-rule="evenodd" clip-rule="evenodd" d="M61.1423 0.341436C60.6464 0.106241 60.0711 0.10624 59.5753 0.341434C59.232 0.504252 58.9885 0.812451 58.7727 1.16078C58.5557 1.51101 58.3177 1.98706 58.0213 2.57988L58.0213 2.5799L58.0097 2.60312L57.7708 3.08091C57.5676 3.48742 57.5085 3.59395 57.4342 3.67162C57.3577 3.75172 57.2659 3.81573 57.1643 3.85985C57.0658 3.90263 56.9454 3.92126 56.4937 3.97146L56.2768 3.99555L56.2508 3.99845H56.2508C55.5387 4.07756 54.9699 4.14076 54.5392 4.22835C54.1145 4.31474 53.7187 4.44263 53.4416 4.72533C53.0452 5.12979 52.8585 5.69515 52.9363 6.25614C52.9906 6.64823 53.2325 6.98667 53.5223 7.30895C53.8161 7.63569 54.2355 8.02519 54.7606 8.5127L54.7797 8.53053L55.0087 8.7431C55.4064 9.11239 55.5084 9.21685 55.5655 9.32808C55.6245 9.44298 55.6559 9.56998 55.6572 9.6991C55.6586 9.82398 55.6162 9.96647 55.4341 10.4856L55.4255 10.5101L55.4255 10.5102C55.1567 11.2761 54.9438 11.8828 54.823 12.3548C54.7056 12.8132 54.6398 13.2634 54.7928 13.6533C55.0082 14.2019 55.4748 14.613 56.0462 14.7576C56.451 14.8601 56.8855 14.7407 57.3216 14.5687C57.7693 14.3921 58.3363 14.1087 59.0511 13.7513L59.0745 13.7396L59.6302 13.4616C60.005 13.2743 60.1073 13.2282 60.2055 13.2097C60.3068 13.1908 60.4108 13.1908 60.512 13.2097C60.6102 13.2282 60.7126 13.2743 61.0873 13.4616L61.6431 13.7396L61.6666 13.7513C62.3813 14.1087 62.9482 14.3921 63.3959 14.5687C63.832 14.7407 64.2665 14.8601 64.6714 14.7576C65.2427 14.613 65.7094 14.2019 65.9247 13.6533C66.0778 13.2634 66.0119 12.8132 65.8946 12.3548C65.7737 11.8828 65.5609 11.2761 65.2921 10.5101V10.51L65.2835 10.4856C65.1014 9.96647 65.059 9.82398 65.0603 9.6991C65.0617 9.56998 65.0931 9.44298 65.1521 9.32808C65.2092 9.21685 65.3111 9.11239 65.7089 8.7431L65.9378 8.53053L65.957 8.51264C66.482 8.02513 66.9015 7.63569 67.1953 7.30895C67.4851 6.98667 67.727 6.64823 67.7813 6.25614C67.859 5.69515 67.6724 5.12979 67.2759 4.72533C66.9989 4.44263 66.603 4.31474 66.1783 4.22835C65.7477 4.14076 65.1788 4.07756 64.4668 3.99845L64.4407 3.99555L64.2239 3.97146C63.7722 3.92126 63.6518 3.90263 63.5533 3.85985C63.4516 3.81573 63.3599 3.75172 63.2833 3.67162C63.2091 3.59395 63.15 3.48742 62.9468 3.08091L62.7079 2.60313L62.6962 2.5799C62.3998 1.98706 62.1618 1.51101 61.9449 1.16078C61.7291 0.812451 61.4856 0.504259 61.1423 0.341436Z" fill="#FFC250"/>
<path fill-rule="evenodd" clip-rule="evenodd" d="M78.7819 0.341436C78.2861 0.106241 77.7108 0.10624 77.2149 0.341434C76.8716 0.504252 76.6281 0.812451 76.4123 1.16078C76.1954 1.51101 75.9574 1.98706 75.661 2.57988L75.661 2.5799L75.6493 2.60312L75.4105 3.08091C75.2072 3.48742 75.1481 3.59395 75.0739 3.67162C74.9974 3.75172 74.9056 3.81573 74.8039 3.85985C74.7054 3.90263 74.585 3.92126 74.1333 3.97146L73.9165 3.99555L73.8904 3.99845H73.8904C73.1784 4.07756 72.6095 4.14076 72.1789 4.22835C71.7542 4.31474 71.3583 4.44263 71.0813 4.72533C70.6848 5.12979 70.4982 5.69515 70.5759 6.25614C70.6302 6.64823 70.8721 6.98667 71.1619 7.30895C71.4558 7.63569 71.8752 8.02519 72.4002 8.5127L72.4194 8.53053L72.6483 8.7431C73.046 9.11239 73.148 9.21685 73.2051 9.32808C73.2641 9.44298 73.2955 9.56998 73.2969 9.6991C73.2982 9.82398 73.2559 9.96647 73.0737 10.4856L73.0651 10.5101L73.0651 10.5102C72.7963 11.2761 72.5835 11.8828 72.4626 12.3548C72.3452 12.8132 72.2794 13.2634 72.4325 13.6533C72.6479 14.2019 73.1145 14.613 73.6858 14.7576C74.0907 14.8601 74.5252 14.7407 74.9613 14.5687C75.409 14.3921 75.9759 14.1087 76.6907 13.7513L76.7141 13.7396L77.2699 13.4616C77.6446 13.2743 77.747 13.2282 77.8452 13.2097C77.9464 13.1908 78.0504 13.1908 78.1517 13.2097C78.2499 13.2282 78.3522 13.2743 78.727 13.4616L79.2827 13.7396L79.3062 13.7513C80.021 14.1087 80.5879 14.3921 81.0356 14.5687C81.4717 14.7407 81.9062 14.8601 82.311 14.7576C82.8824 14.613 83.349 14.2019 83.5644 13.6533C83.7174 13.2634 83.6516 12.8132 83.5342 12.3548C83.4134 11.8828 83.2005 11.2761 82.9317 10.5101V10.51L82.9231 10.4856C82.741 9.96647 82.6987 9.82398 82.6999 9.6991C82.7013 9.56998 82.7327 9.44298 82.7918 9.32808C82.8489 9.21685 82.9508 9.11239 83.3485 8.7431L83.5775 8.53053L83.5967 8.51264C84.1217 8.02513 84.5411 7.63569 84.8349 7.30895C85.1247 6.98667 85.3666 6.64823 85.421 6.25614C85.4987 5.69515 85.312 5.12979 84.9156 4.72533C84.6385 4.44263 84.2427 4.31474 83.818 4.22835C83.3873 4.14076 82.8185 4.07756 82.1064 3.99845L82.0804 3.99555L81.8636 3.97146C81.4118 3.92126 81.2914 3.90263 81.1929 3.85985C81.0913 3.81573 80.9995 3.75172 80.923 3.67162C80.8488 3.59395 80.7897 3.48742 80.5864 3.08091L80.3475 2.60313L80.3359 2.5799C80.0395 1.98706 79.8015 1.51101 79.5845 1.16078C79.3688 0.812451 79.1253 0.504259 78.7819 0.341436Z" fill="#FFC250"/>
</svg>
