<svg width="265" height="79" viewBox="0 0 265 79" fill="none" xmlns="http://www.w3.org/2000/svg">
<rect x="0.980769" y="1.39386" width="262.846" height="76.5" rx="12.75" fill="black"/>
<rect x="0.980769" y="1.39386" width="262.846" height="76.5" rx="12.75" stroke="#A6A6A6" stroke-width="1.96154"/>
<path d="M159.916 38.0763V42.5702H157.099V45.5173H159.916V55.531C159.916 58.9502 161.462 60.318 165.354 60.318C166.038 60.318 166.689 60.2365 167.259 60.1388V57.2243C166.77 57.2732 166.461 57.3057 165.924 57.3057C164.182 57.3057 163.416 56.4916 163.416 54.6354V45.5173H167.259V42.5702H163.416V38.0763H159.916Z" fill="white"/>
<path d="M177.172 60.5622C182.35 60.5622 185.525 57.0941 185.525 51.3464C185.525 45.6313 182.334 42.1469 177.172 42.1469C171.995 42.1469 168.803 45.6313 168.803 51.3464C168.803 57.0941 171.978 60.5622 177.172 60.5622ZM177.172 57.4523C174.127 57.4523 172.418 55.2216 172.418 51.3464C172.418 47.5038 174.127 45.2568 177.172 45.2568C180.201 45.2568 181.927 47.5038 181.927 51.3464C181.927 55.2053 180.201 57.4523 177.172 57.4523Z" fill="white"/>
<path d="M188.242 60.2203H191.742V49.7507C191.742 47.2595 193.615 45.5825 196.269 45.5825C196.888 45.5825 197.93 45.6964 198.223 45.7941V42.3423C197.848 42.2446 197.181 42.1958 196.66 42.1958C194.347 42.1958 192.377 43.4658 191.873 45.208H191.612V42.4888H188.242V60.2203Z" fill="white"/>
<path d="M206.915 45.1266C209.504 45.1266 211.197 46.9339 211.278 49.7182H202.323C202.519 46.9502 204.326 45.1266 206.915 45.1266ZM211.262 55.4333C210.611 56.8173 209.162 57.5825 207.045 57.5825C204.245 57.5825 202.437 55.6124 202.323 52.5024V52.3071H214.844V51.0859C214.844 45.5173 211.865 42.1469 206.931 42.1469C201.932 42.1469 198.757 45.7453 198.757 51.4115C198.757 57.0778 201.867 60.5622 206.947 60.5622C211.002 60.5622 213.835 58.6083 214.633 55.4333H211.262Z" fill="white"/>
<path d="M136.959 53.6723C137.229 58.0264 140.857 60.8109 146.257 60.8109C152.029 60.8109 155.64 57.8914 155.64 53.2335C155.64 49.5714 153.582 47.5463 148.586 46.3818L145.903 45.7237C142.73 44.9811 141.448 43.9854 141.448 42.2472C141.448 40.0533 143.439 38.6188 146.426 38.6188C149.261 38.6188 151.219 40.0195 151.573 42.2641H155.252C155.033 38.1632 151.421 35.2773 146.477 35.2773C141.161 35.2773 137.617 38.1632 137.617 42.5003C137.617 46.0781 139.625 48.2045 144.03 49.2339L147.169 49.9933C150.392 50.7528 151.81 51.8666 151.81 53.7229C151.81 55.8831 149.582 57.4526 146.544 57.4526C143.287 57.4526 141.026 55.9843 140.705 53.6723H136.959Z" fill="white"/>
<path d="M100.695 42.1958C98.2852 42.1958 96.2011 43.4006 95.1265 45.4196H94.8659V42.4888H91.4955V66.1144H94.9962V57.5337H95.273C96.2011 59.4061 98.2038 60.5133 100.728 60.5133C105.205 60.5133 108.055 56.9801 108.055 51.3464C108.055 45.7127 105.205 42.1958 100.695 42.1958ZM99.7018 57.3709C96.771 57.3709 94.9311 55.0588 94.9311 51.3627C94.9311 47.6503 96.771 45.3382 99.7181 45.3382C102.681 45.3382 104.456 47.6015 104.456 51.3464C104.456 55.1076 102.681 57.3709 99.7018 57.3709Z" fill="white"/>
<path d="M120.304 42.1958C117.894 42.1958 115.81 43.4006 114.736 45.4196H114.475V42.4888H111.105V66.1144H114.605V57.5337H114.882C115.81 59.4061 117.813 60.5133 120.337 60.5133C124.814 60.5133 127.664 56.9801 127.664 51.3464C127.664 45.7127 124.814 42.1958 120.304 42.1958ZM119.311 57.3709C116.38 57.3709 114.54 55.0588 114.54 51.3627C114.54 47.6503 116.38 45.3382 119.327 45.3382C122.291 45.3382 124.065 47.6015 124.065 51.3464C124.065 55.1076 122.291 57.3709 119.311 57.3709Z" fill="white"/>
<path d="M85.2147 60.2203H89.2312L80.4387 35.868H76.3716L67.5791 60.2203H71.4606L73.7051 53.7567H82.987L85.2147 60.2203ZM78.2111 40.2896H78.498L82.0251 50.584H74.6671L78.2111 40.2896Z" fill="white"/>
<path d="M69.9316 17.4994V29.2471H74.1732C77.6739 29.2471 79.701 27.0897 79.701 23.3366C79.701 19.6405 77.6576 17.4994 74.1732 17.4994H69.9316ZM71.7553 19.1602H73.9697C76.4039 19.1602 77.8448 20.707 77.8448 23.361C77.8448 26.0558 76.4283 27.5863 73.9697 27.5863H71.7553V19.1602Z" fill="white"/>
<path d="M85.9095 29.4181C88.4983 29.4181 90.0859 27.684 90.0859 24.8102C90.0859 21.9526 88.4902 20.2104 85.9095 20.2104C83.3206 20.2104 81.7249 21.9526 81.7249 24.8102C81.7249 27.684 83.3124 29.4181 85.9095 29.4181ZM85.9095 27.8631C84.3871 27.8631 83.5322 26.7478 83.5322 24.8102C83.5322 22.8888 84.3871 21.7654 85.9095 21.7654C87.4237 21.7654 88.2867 22.8888 88.2867 24.8102C88.2867 26.7396 87.4237 27.8631 85.9095 27.8631Z" fill="white"/>
<path d="M103.605 20.3814H101.855L100.275 27.1467H100.137L98.3133 20.3814H96.6362L94.8126 27.1467H94.6824L93.0948 20.3814H91.3201L93.7624 29.2471H95.5616L97.3852 22.7179H97.5236L99.3554 29.2471H101.171L103.605 20.3814Z" fill="white"/>
<path d="M105.621 29.2471H107.371V24.0612C107.371 22.6772 108.193 21.8142 109.488 21.8142C110.782 21.8142 111.401 22.5225 111.401 23.9472V29.2471H113.151V23.5076C113.151 21.399 112.06 20.2104 110.082 20.2104C108.747 20.2104 107.868 20.8047 107.436 21.7898H107.306V20.3814H105.621V29.2471Z" fill="white"/>
<path d="M115.908 29.2471H117.658V16.9214H115.908V29.2471Z" fill="white"/>
<path d="M124.241 29.4181C126.83 29.4181 128.418 27.684 128.418 24.8102C128.418 21.9526 126.822 20.2104 124.241 20.2104C121.652 20.2104 120.057 21.9526 120.057 24.8102C120.057 27.684 121.644 29.4181 124.241 29.4181ZM124.241 27.8631C122.719 27.8631 121.864 26.7478 121.864 24.8102C121.864 22.8888 122.719 21.7654 124.241 21.7654C125.756 21.7654 126.618 22.8888 126.618 24.8102C126.618 26.7396 125.756 27.8631 124.241 27.8631Z" fill="white"/>
<path d="M133.633 27.9201C132.68 27.9201 131.988 27.456 131.988 26.6582C131.988 25.8767 132.542 25.4615 133.763 25.38L135.929 25.2416V25.9825C135.929 27.0815 134.952 27.9201 133.633 27.9201ZM133.185 29.3936C134.349 29.3936 135.318 28.8889 135.847 28.0015H135.986V29.2471H137.671V23.1901C137.671 21.3176 136.417 20.2104 134.195 20.2104C132.184 20.2104 130.751 21.1873 130.572 22.7097H132.265C132.461 22.0829 133.136 21.7247 134.113 21.7247C135.31 21.7247 135.929 22.2538 135.929 23.1901V23.9553L133.527 24.0937C131.418 24.224 130.23 25.1439 130.23 26.7396C130.23 28.3597 131.475 29.3936 133.185 29.3936Z" fill="white"/>
<path d="M143.611 29.3936C144.832 29.3936 145.866 28.8156 146.395 27.8468H146.533V29.2471H148.21V16.9214H146.46V21.7898H146.33C145.849 20.8129 144.824 20.2348 143.611 20.2348C141.372 20.2348 139.931 22.0096 139.931 24.8102C139.931 27.6189 141.356 29.3936 143.611 29.3936ZM144.107 21.8061C145.573 21.8061 146.493 22.9703 146.493 24.8183C146.493 26.6745 145.581 27.8224 144.107 27.8224C142.626 27.8224 141.738 26.6908 141.738 24.8102C141.738 22.9458 142.634 21.8061 144.107 21.8061Z" fill="white"/>
<path d="M159.561 29.4181C162.15 29.4181 163.737 27.684 163.737 24.8102C163.737 21.9526 162.142 20.2104 159.561 20.2104C156.972 20.2104 155.376 21.9526 155.376 24.8102C155.376 27.684 156.964 29.4181 159.561 29.4181ZM159.561 27.8631C158.038 27.8631 157.184 26.7478 157.184 24.8102C157.184 22.8888 158.038 21.7654 159.561 21.7654C161.075 21.7654 161.938 22.8888 161.938 24.8102C161.938 26.7396 161.075 27.8631 159.561 27.8631Z" fill="white"/>
<path d="M166.054 29.2471H167.805V24.0612C167.805 22.6772 168.627 21.8142 169.921 21.8142C171.216 21.8142 171.834 22.5225 171.834 23.9472V29.2471H173.585V23.5076C173.585 21.399 172.494 20.2104 170.516 20.2104C169.18 20.2104 168.301 20.8047 167.87 21.7898H167.739V20.3814H166.054V29.2471Z" fill="white"/>
<path d="M181.646 18.1751V20.4221H180.238V21.8956H181.646V26.9024C181.646 28.6121 182.42 29.2959 184.365 29.2959C184.707 29.2959 185.033 29.2552 185.318 29.2064V27.7491C185.074 27.7735 184.919 27.7898 184.65 27.7898C183.779 27.7898 183.396 27.3828 183.396 26.4547V21.8956H185.318V20.4221H183.396V18.1751H181.646Z" fill="white"/>
<path d="M187.667 29.2471H189.418V24.0693C189.418 22.726 190.215 21.8224 191.648 21.8224C192.886 21.8224 193.545 22.5388 193.545 23.9553V29.2471H195.296V23.5239C195.296 21.4153 194.131 20.2186 192.243 20.2186C190.907 20.2186 189.971 20.8129 189.54 21.8061H189.401V16.9214H187.667V29.2471Z" fill="white"/>
<path d="M201.61 21.7002C202.904 21.7002 203.751 22.6039 203.792 23.996H199.314C199.412 22.6121 200.315 21.7002 201.61 21.7002ZM203.784 26.8536C203.458 27.5456 202.733 27.9282 201.675 27.9282C200.275 27.9282 199.371 26.9431 199.314 25.3882V25.2905H205.575V24.6799C205.575 21.8956 204.085 20.2104 201.618 20.2104C199.119 20.2104 197.531 22.0096 197.531 24.8427C197.531 27.6758 199.086 29.4181 201.626 29.4181C203.653 29.4181 205.07 28.4411 205.469 26.8536H203.784Z" fill="white"/>
<path d="M48.5856 40.2344C48.628 36.937 50.3988 33.817 53.208 32.0899C51.4358 29.5589 48.4675 27.9542 45.3792 27.8576C42.0853 27.5118 38.892 29.8286 37.2135 29.8286C35.5025 29.8286 32.9182 27.8919 30.1353 27.9491C26.5079 28.0663 23.1263 30.1287 21.3615 33.3C17.5679 39.868 20.3976 49.5208 24.0316 54.83C25.8497 57.4297 27.9746 60.3337 30.755 60.2307C33.4758 60.1178 34.4919 58.4957 37.7761 58.4957C41.0298 58.4957 41.9832 60.2307 44.82 60.1652C47.7395 60.1178 49.579 57.5539 51.3333 54.9296C52.6397 53.0772 53.6449 51.0299 54.3118 48.8635C50.8808 47.4124 48.5896 43.9596 48.5856 40.2344Z" fill="white"/>
<path d="M43.2273 24.366C44.8191 22.4551 45.6034 19.9989 45.4135 17.519C42.9815 17.7745 40.735 18.9368 39.1217 20.7744C37.544 22.5699 36.723 24.9829 36.8782 27.3679C39.3111 27.393 41.7028 26.2622 43.2273 24.366Z" fill="white"/>
</svg>
