<svg width="209" height="157" viewBox="0 0 209 157" fill="none" xmlns="http://www.w3.org/2000/svg">
<rect x="53.3398" y="53.0015" width="138.658" height="61.0664" rx="4.52344" fill="#F15046"/>
<rect x="64.2969" y="0.60498" width="144.703" height="102.908" rx="7.53906" fill="#FAF0E4"/>
<rect x="79.1367" y="33.1582" width="114.614" height="37.3004" rx="2.03457" fill="white"/>
<g clip-path="url(#clip0_1442_48337)">
<path d="M93.141 42.093C94.7312 42.093 96.0203 40.8648 96.0203 39.3497C96.0203 37.8346 94.7312 36.6064 93.141 36.6064C91.5508 36.6064 90.2617 37.8346 90.2617 39.3497C90.2617 40.8648 91.5508 42.093 93.141 42.093Z" fill="#F60C01"/>
<path d="M163.156 63.2641C162.905 63.3004 162.68 63.3188 162.507 63.3208C160.982 63.3377 159.432 63.0636 157.91 62.9618C154.181 62.7124 150.462 62.3479 146.729 62.1497C143.245 61.9646 139.751 61.8723 136.262 61.9494C132.828 62.0253 129.388 62.1451 125.96 62.3722C122.577 62.5964 119.182 62.8413 115.819 63.2754C112.648 63.6847 109.513 64.3146 106.402 65.0464C106.079 65.1223 105.742 65.1523 105.426 65.2575C105.02 65.3932 104.435 65.4964 104.164 65.8397C103.863 66.2206 103.816 66.6328 103.356 66.8944C102.857 67.1778 102.186 67.2656 101.631 67.3843C100.419 67.6441 99.1411 67.6812 97.907 67.5949C95.9951 67.4613 92.4168 66.4192 94.1252 63.8933C94.1351 63.8786 94.1491 63.8638 94.1646 63.8559C94.4706 63.7017 94.7787 63.5517 95.0824 63.3933C95.1714 63.3468 95.2422 63.2647 95.332 63.2203C96.3895 62.6973 97.4775 62.4257 98.591 62.0558C99.5046 61.7523 100.421 61.4579 101.343 61.1798C103.248 60.6051 105.173 60.1029 107.119 59.6883C111.259 58.806 115.471 58.3123 119.689 58.0065C123.989 57.6948 128.301 57.5667 132.611 57.5333C136.958 57.4997 141.308 57.5694 145.649 57.8061C149.942 58.0402 154.218 58.4704 158.488 58.9688C159.974 59.1423 161.38 59.3614 162.837 59.7253C163.685 59.9371 164.687 60.2028 165.305 60.8673C166.671 62.3347 164.528 63.0657 163.156 63.2641Z" fill="#F60C01"/>
<path d="M110.096 46.4934C110.096 44.2779 110.099 42.0624 110.091 39.847C110.09 39.6402 110.044 39.4267 109.98 39.2287C109.897 38.9703 109.634 38.9447 109.421 38.8589C109.204 38.7717 108.925 38.7735 108.824 38.5101C108.761 38.3455 108.741 38.1627 108.719 37.9859C108.715 37.9549 108.793 37.8994 108.842 37.8801C108.89 37.8617 108.95 37.8753 109.005 37.8753C111.928 37.8752 114.852 37.886 117.775 37.8678C118.538 37.863 119.306 37.8121 120.059 37.6531C120.121 37.6401 120.174 37.5923 120.235 37.5685C120.401 37.5029 120.475 37.5678 120.474 37.7457C120.47 38.7053 120.474 39.6648 120.471 40.6243C120.47 40.983 120.464 41.342 120.445 41.7001C120.442 41.7515 120.357 41.8395 120.308 41.8406C120.064 41.8462 119.815 41.8499 119.575 41.8102C119.446 41.7889 119.278 41.7083 119.221 41.6036C119.07 41.3225 118.97 41.0138 118.848 40.7165C118.725 40.4142 118.623 40.0999 118.469 39.8141C118.326 39.5485 118.107 39.3249 117.811 39.2262C117.559 39.1417 117.292 39.0566 117.03 39.051C115.688 39.0221 114.346 39.0183 113.005 39.0071C112.647 39.0042 112.647 39.0065 112.647 39.3683C112.647 41.3282 112.649 43.288 112.644 45.2478C112.643 45.4191 112.683 45.4793 112.864 45.4754C113.429 45.4633 113.995 45.4838 114.56 45.4651C114.966 45.4517 115.378 45.4258 115.763 45.2789C116 45.1887 116.14 44.9826 116.255 44.7655C116.363 44.559 116.458 44.3444 116.571 44.1402C116.662 43.9747 116.812 43.8987 117.005 43.8981C117.18 43.8975 117.355 43.876 117.53 43.871C117.662 43.8673 117.721 43.9325 117.721 44.0721C117.725 45.1977 117.734 46.3233 117.74 47.4488C117.741 47.6916 117.747 47.9353 117.728 48.1768C117.713 48.3575 117.621 48.4055 117.445 48.3868C117.339 48.3757 117.23 48.3782 117.124 48.3905C116.876 48.4192 116.58 48.2211 116.476 47.975C116.351 47.6778 116.234 47.3709 116.06 47.1023C115.891 46.8403 115.59 46.7022 115.291 46.6844C114.469 46.6356 113.645 46.6306 112.822 46.601C112.661 46.5952 112.646 46.6738 112.646 46.8015C112.648 48.1953 112.647 49.5891 112.647 50.9828C112.647 51.7071 112.638 52.4316 112.653 53.1556C112.658 53.3478 112.73 53.5405 112.786 53.7285C112.802 53.7837 112.861 53.8452 112.915 53.8671C113.147 53.9612 113.389 54.0302 113.618 54.1318C113.723 54.1787 113.849 54.2623 113.887 54.3598C113.947 54.5173 113.955 54.6998 113.96 54.8724C113.964 55.0005 113.859 55.0385 113.744 55.0387C113.513 55.0391 113.282 55.0389 113.052 55.0389C111.702 55.0388 110.353 55.0387 109.004 55.0383C108.758 55.0382 108.732 55.015 108.746 54.7624C108.752 54.639 108.767 54.512 108.805 54.3952C108.9 54.0984 109.196 54.086 109.423 54.0302C110 53.8886 110.065 53.6746 110.085 53.1758C110.12 52.3251 110.095 51.472 110.096 50.6199C110.096 49.2444 110.096 47.8689 110.096 46.4934Z" fill="black"/>
<path d="M139.376 44.4377C139.478 44.3692 139.581 44.311 139.672 44.2378C140.125 43.874 140.617 43.5726 141.162 43.3762C141.688 43.1868 142.234 43.0883 142.797 43.0495C143.34 43.0121 143.875 43.0494 144.401 43.1415C145.258 43.2915 146.01 43.6679 146.522 44.4039C146.707 44.6696 146.871 44.9672 146.964 45.2747C147.046 45.5457 147.03 45.8507 147.031 46.1408C147.035 48.4048 147.031 50.6689 147.037 52.9329C147.037 53.148 147.072 53.3661 147.119 53.5765C147.137 53.659 147.22 53.7444 147.296 53.7934C147.487 53.9165 147.686 54.0219 147.929 54.0211C148.117 54.0205 148.3 54.2622 148.306 54.5305C148.319 55.0986 148.344 55.0398 147.857 55.0395C146.435 55.0386 145.013 55.0394 143.591 55.0394C143.344 55.0394 143.313 55.0099 143.316 54.7529C143.318 54.5755 143.261 54.3731 143.426 54.2427C143.546 54.1474 143.692 54.0408 143.835 54.0267C144.147 53.9962 144.413 53.8949 144.601 53.6489C144.669 53.5585 144.695 53.4146 144.695 53.295C144.701 51.238 144.702 49.1809 144.699 47.1238C144.698 46.7172 144.714 46.305 144.655 45.9054C144.565 45.299 144.29 44.7978 143.696 44.5178C143.191 44.2795 142.666 44.1463 142.112 44.1994C141.814 44.2279 141.526 44.3414 141.229 44.3959C140.882 44.4597 140.596 44.6483 140.322 44.8433C140.055 45.0341 139.824 45.2775 139.584 45.5058C139.544 45.5444 139.524 45.6233 139.524 45.6836C139.521 48.2215 139.521 50.7594 139.524 53.2973C139.524 53.5235 139.658 53.8398 139.96 53.9107C140.16 53.9579 140.356 54.0278 140.555 54.0817C140.782 54.143 140.824 54.3373 140.831 54.5169C140.854 55.1263 140.86 55.0384 140.362 55.0388C138.971 55.0397 137.579 55.0391 136.187 55.039C135.969 55.039 135.948 55.0175 135.948 54.7974C135.948 54.7123 135.945 54.6271 135.946 54.5419C135.948 54.2551 136.122 54.0943 136.402 54.0074C136.636 53.9349 136.883 53.8241 137.054 53.6578C137.164 53.5502 137.183 53.312 137.183 53.1321C137.192 51.1298 137.189 49.1275 137.189 47.1252C137.189 46.4861 137.195 45.847 137.185 45.2081C137.182 44.9926 137.15 44.7628 136.963 44.622C136.837 44.5277 136.678 44.4778 136.532 44.412C136.396 44.3508 136.25 44.3082 136.123 44.2333C135.965 44.1402 135.943 43.9786 135.945 43.8044C135.951 43.356 135.947 43.358 136.396 43.35C136.912 43.3408 137.428 43.3332 137.944 43.3139C138.318 43.2998 138.692 43.2701 139.065 43.2431C139.292 43.2266 139.374 43.2974 139.376 43.5286C139.377 43.8176 139.376 44.1066 139.376 44.4377Z" fill="black"/>
<path d="M157.18 48.8366C156.019 48.8366 154.859 48.8368 153.698 48.8365C153.395 48.8364 153.092 48.8357 152.789 48.8334C152.652 48.8324 152.575 48.8633 152.568 49.0346C152.55 49.495 152.545 49.9541 152.654 50.4033C152.766 50.8614 152.856 51.3324 153.035 51.7647C153.282 52.3612 153.653 52.8878 154.15 53.3188C154.52 53.639 154.939 53.8491 155.391 54.0277C155.793 54.1871 156.209 54.2697 156.628 54.2949C156.966 54.3151 157.312 54.2527 157.649 54.1953C158.09 54.1203 158.49 53.9282 158.869 53.6936C159.389 53.3727 159.806 52.9391 160.196 52.4778C160.376 52.265 160.421 52.2503 160.63 52.4214C160.775 52.5394 160.92 52.6608 161.08 52.7536C161.212 52.8296 161.208 52.9037 161.125 52.9966C160.864 53.2896 160.608 53.587 160.334 53.8673C159.901 54.3095 159.408 54.6764 158.851 54.9436C158.607 55.0605 158.334 55.1186 158.072 55.1915C157.781 55.2722 157.489 55.3816 157.192 55.4028C156.667 55.4404 156.136 55.4527 155.612 55.4148C155.185 55.384 154.763 55.275 154.344 55.1791C154.136 55.1316 153.927 55.0587 153.741 54.9564C153.306 54.7172 152.865 54.4814 152.463 54.1924C151.966 53.8348 151.537 53.391 151.186 52.888C150.818 52.3628 150.528 51.7983 150.338 51.1755C150.124 50.4692 150.01 49.7523 150.035 49.0222C150.051 48.5317 150.14 48.0408 150.231 47.5566C150.294 47.2189 150.386 46.8795 150.518 46.563C150.824 45.8271 151.258 45.1729 151.837 44.6147C152.294 44.1746 152.803 43.8252 153.381 43.5657C153.948 43.3109 154.529 43.1279 155.154 43.0949C155.376 43.0831 155.599 43.0138 155.817 43.0318C156.326 43.0738 156.832 43.1511 157.339 43.2171C157.799 43.2772 158.204 43.5005 158.589 43.7275C159.242 44.1123 159.754 44.6557 160.162 45.3022C160.441 45.7439 160.636 46.2196 160.787 46.7117C160.881 47.0189 160.918 47.3454 160.961 47.6659C161.001 47.9701 161.024 48.2774 161.04 48.584C161.054 48.8286 161.043 48.8314 160.807 48.8315C159.598 48.832 158.389 48.8318 157.18 48.8318C157.18 48.8334 157.18 48.835 157.18 48.8366ZM155.805 47.6739C155.805 47.6742 155.805 47.6745 155.805 47.6749C156.618 47.6749 157.432 47.6722 158.245 47.6773C158.394 47.6782 158.443 47.617 158.429 47.4799C158.387 47.0635 158.383 46.6392 158.297 46.2323C158.118 45.3892 157.688 44.7313 156.841 44.4002C156.162 44.1346 155.479 44.1155 154.796 44.3329C154.521 44.4206 154.249 44.5648 154.019 44.7413C153.554 45.1 153.219 45.5789 153.029 46.1325C152.877 46.5769 152.792 47.0449 152.681 47.5034C152.652 47.626 152.708 47.6844 152.838 47.68C153.031 47.6735 153.225 47.6742 153.419 47.6741C154.214 47.6736 155.01 47.6739 155.805 47.6739Z" fill="black"/>
<path d="M178.294 55.382C177.834 55.3524 177.373 55.3643 176.929 55.2836C176.427 55.1921 175.937 55.0244 175.446 54.8771C175.042 54.7559 174.687 54.537 174.35 54.2831C173.873 53.9235 173.579 53.2191 173.725 52.7252C173.849 52.3045 174.15 52.0494 174.527 51.8534C174.863 51.6788 175.23 51.6988 175.553 51.7735C175.981 51.8721 176.361 52.1277 176.537 52.5714C176.583 52.6856 176.566 52.8326 176.55 52.961C176.535 53.0778 176.479 53.1888 176.449 53.3044C176.346 53.7002 176.552 54.0925 176.931 54.2366C177.581 54.4832 178.241 54.5151 178.919 54.3701C179.503 54.2453 180.017 54.0093 180.449 53.5854C180.724 53.3164 180.839 52.9767 180.9 52.6265C180.986 52.1344 180.904 51.6473 180.541 51.2811C180.299 51.0371 179.999 50.8439 179.704 50.6614C179.483 50.5246 179.233 50.4297 178.988 50.3372C178.743 50.2447 178.486 50.1824 178.237 50.0999C177.897 49.9875 177.563 49.8585 177.22 49.7548C176.691 49.5943 176.192 49.3727 175.728 49.069C175.127 48.6759 174.659 48.1701 174.41 47.4894C174.333 47.2791 174.299 47.048 174.277 46.8233C174.239 46.418 174.269 46.0105 174.39 45.6224C174.502 45.2614 174.693 44.9312 174.94 44.6437C175.256 44.2756 175.629 43.9689 176.059 43.7419C176.328 43.6 176.601 43.459 176.887 43.358C177.255 43.2279 177.635 43.1312 178.014 43.035C178.159 42.9982 178.314 42.9893 178.465 42.9909C178.98 42.9964 179.498 42.9794 180.01 43.032C180.711 43.1043 181.383 43.3095 181.975 43.7103C182.32 43.9438 182.523 44.2731 182.636 44.6887C182.734 45.0499 182.684 45.3671 182.499 45.6531C182.262 46.0205 181.893 46.2065 181.453 46.2371C181.051 46.265 180.688 46.1938 180.352 45.9328C179.982 45.6458 179.868 45.3007 179.935 44.8554C179.96 44.6861 179.957 44.5008 179.913 44.3372C179.887 44.2387 179.771 44.1348 179.671 44.0904C179.261 43.9092 178.831 43.8782 178.383 43.9217C177.988 43.9599 177.64 44.0957 177.322 44.3095C176.82 44.6471 176.473 45.1077 176.507 45.735C176.535 46.239 176.75 46.6732 177.201 46.9721C177.666 47.2812 178.185 47.4592 178.701 47.6479C179.238 47.8447 179.78 48.0306 180.325 48.2044C180.858 48.3743 181.358 48.6121 181.817 48.9248C182.422 49.3366 182.888 49.8628 183.144 50.5714C183.325 51.0698 183.328 51.5829 183.26 52.0757C183.186 52.6195 182.941 53.1288 182.579 53.563C182.059 54.187 181.409 54.6411 180.665 54.9391C180.105 55.1633 179.517 55.322 178.903 55.3331C178.698 55.3368 178.493 55.3653 178.294 55.382Z" fill="black"/>
<path d="M167.441 55.3955C166.845 55.3545 166.398 55.3628 165.967 55.2844C165.375 55.1768 164.787 55.0396 164.232 54.781C163.885 54.6194 163.561 54.4357 163.288 54.1682C162.989 53.8749 162.773 53.5246 162.728 53.1069C162.684 52.6875 162.897 52.3699 163.2 52.0827C163.61 51.6938 164.11 51.6819 164.587 51.7723C164.996 51.8497 165.377 52.1027 165.556 52.5128C165.626 52.6732 165.603 52.911 165.542 53.0856C165.361 53.6045 165.447 54.0216 166.041 54.2484C166.516 54.4301 166.997 54.4908 167.488 54.4481C168.164 54.3893 168.812 54.2014 169.332 53.7374C169.831 53.2925 170.065 52.7159 169.962 52.0493C169.897 51.6279 169.654 51.2816 169.318 51.0113C168.934 50.7023 168.483 50.5177 168.031 50.3407C167.683 50.2045 167.325 50.0951 166.97 49.9778C166.615 49.8607 166.255 49.7609 165.905 49.632C165.102 49.3366 164.38 48.9141 163.847 48.2257C163.381 47.6241 163.207 46.9195 163.311 46.1824C163.43 45.339 163.83 44.6294 164.538 44.115C164.983 43.7915 165.46 43.5331 165.974 43.3378C166.58 43.1072 167.205 42.9776 167.855 42.989C168.249 42.9958 168.645 42.9884 169.035 43.0295C169.541 43.0827 170.032 43.2113 170.498 43.4275C170.92 43.623 171.309 43.8608 171.537 44.2809C171.917 44.9814 171.782 45.7908 170.929 46.1283C170.421 46.3292 169.915 46.3203 169.474 45.9839C169.014 45.6334 168.839 45.4482 169.01 44.8198C169.083 44.5514 168.995 44.2077 168.643 44.0658C168.162 43.8719 167.683 43.8765 167.19 43.9624C166.581 44.0683 166.118 44.3925 165.783 44.9044C165.598 45.1853 165.555 45.4883 165.584 45.8293C165.66 46.6948 166.243 47.0667 166.956 47.3352C167.173 47.4171 167.387 47.5071 167.606 47.5847C167.998 47.7238 168.391 47.8588 168.785 47.9911C169.636 48.2766 170.475 48.5852 171.182 49.1645C171.709 49.5972 172.093 50.1366 172.253 50.8008C172.381 51.3378 172.37 51.885 172.212 52.427C172.027 53.0593 171.667 53.56 171.185 54.0014C170.742 54.407 170.242 54.7113 169.7 54.9465C169.414 55.0711 169.102 55.1536 168.794 55.2089C168.297 55.2978 167.794 55.3484 167.441 55.3955Z" fill="black"/>
<path d="M129.898 48.9169C129.898 47.7364 129.898 46.5559 129.9 45.3754C129.9 45.2611 129.914 45.1463 129.929 45.0327C129.956 44.8322 129.882 44.7406 129.682 44.7404C129.263 44.7402 128.843 44.7353 128.424 44.743C128.256 44.7461 128.187 44.6621 128.188 44.5153C128.188 44.3466 128.19 44.1732 128.228 44.0107C128.27 43.8353 128.378 43.7166 128.583 43.6742C128.849 43.6192 129.112 43.5328 129.363 43.4278C129.741 43.2697 129.845 42.9271 129.859 42.5578C129.882 41.939 129.886 41.3196 129.899 40.7004C129.903 40.4901 129.93 40.2816 130.122 40.1567C130.216 40.0952 130.336 40.0527 130.448 40.0423C130.972 39.994 131.497 39.9614 132.022 39.9197C132.2 39.9055 132.242 39.9777 132.241 40.1544C132.238 41.0354 132.254 41.9165 132.26 42.7976C132.261 42.9616 132.251 43.1258 132.242 43.2896C132.229 43.5133 132.284 43.572 132.505 43.5683C132.966 43.5606 133.427 43.5542 133.888 43.5483C134.226 43.544 134.564 43.5332 134.901 43.5451C134.962 43.5473 135.067 43.6426 135.07 43.6999C135.088 43.9908 135.08 44.2834 135.078 44.5754C135.077 44.7263 134.974 44.7418 134.852 44.7414C134.075 44.7392 133.297 44.7403 132.519 44.7403C132.249 44.7403 132.248 44.7403 132.247 45.0068C132.245 47.0269 132.241 49.047 132.242 51.067C132.243 51.6077 132.236 52.1501 132.279 52.6881C132.297 52.9088 132.419 53.1286 132.524 53.3331C132.673 53.621 132.935 53.7963 133.224 53.922C133.347 53.9756 133.488 53.9987 133.623 54.0147C134.131 54.0746 134.604 53.9612 135.052 53.7193C135.177 53.6514 135.286 53.6213 135.352 53.8222C135.401 53.9714 135.532 54.0918 135.607 54.2352C135.634 54.287 135.629 54.4085 135.595 54.4305C135.306 54.6179 135.022 54.8263 134.707 54.9567C134.329 55.1131 133.928 55.2356 133.525 55.3043C133.173 55.3645 132.804 55.3503 132.444 55.3303C132.178 55.3155 131.914 55.2432 131.651 55.1881C131.314 55.1172 131.021 54.9419 130.78 54.7089C130.529 54.4656 130.244 54.2354 130.139 53.8756C130.069 53.6342 129.992 53.3929 129.947 53.1462C129.909 52.933 129.901 52.7123 129.9 52.4948C129.896 51.3022 129.898 50.1095 129.898 48.9169Z" fill="black"/>
<path d="M125.591 48.3814C125.591 49.9819 125.59 51.5824 125.591 53.1829C125.591 53.6312 125.879 53.9595 126.324 54.0166C126.597 54.0517 126.828 54.3057 126.829 54.5819C126.832 55.096 126.871 55.0389 126.39 55.0391C125.005 55.0396 123.619 55.0358 122.234 55.0436C122.049 55.0447 121.995 54.9787 122.016 54.811C122.037 54.6349 121.978 54.4531 122.094 54.2832C122.201 54.128 122.325 54.0337 122.515 54.0147C122.927 53.9736 123.258 53.5994 123.258 53.1844C123.258 50.525 123.258 47.8656 123.257 45.2062C123.256 44.743 123.009 44.4801 122.562 44.4121C122.236 44.3623 122.018 44.1153 122.018 43.7831C122.017 43.3535 122.017 43.3616 122.448 43.3512C123.358 43.3293 124.267 43.3025 125.177 43.2686C125.591 43.2531 125.591 43.2433 125.591 43.653C125.591 45.2291 125.591 46.8053 125.591 48.3814Z" fill="black"/>
<path d="M94.7424 48.0633C94.7426 49.487 94.7403 50.9108 94.7442 52.3345C94.7452 52.6806 94.7629 53.0269 94.7799 53.3727C94.7906 53.592 95.0624 53.8322 95.3345 53.9052C95.8243 54.0368 95.9735 54.0609 96.0096 54.6572C96.03 54.9946 96.0205 54.9673 95.7334 54.9668C94.2815 54.9643 92.8295 54.9637 91.3775 54.9694C91.2188 54.9701 91.1517 54.925 91.1679 54.7639C91.1793 54.6498 91.1698 54.5331 91.1875 54.4204C91.2359 54.1129 91.481 54.0088 91.7298 53.9071C91.9099 53.8335 92.1088 53.7771 92.2543 53.6579C92.348 53.5811 92.399 53.4056 92.4025 53.2726C92.4249 52.4039 92.4358 51.5348 92.4379 50.6657C92.4421 48.8953 92.4402 47.1247 92.4354 45.3543C92.4349 45.1694 92.4233 44.9773 92.3728 44.8012C92.2805 44.4802 91.9858 44.3784 91.7084 44.3101C91.4196 44.239 91.2058 44.0601 91.1698 43.7663C91.1683 43.7543 91.1696 43.742 91.1691 43.7298C91.1494 43.2599 91.165 43.2477 91.643 43.2431C92.584 43.2338 93.5251 43.2204 94.4661 43.2078C94.7465 43.2041 94.743 43.2028 94.7428 43.4819C94.7416 45.009 94.7422 46.5362 94.7424 48.0633Z" fill="black"/>
<path d="M122.492 40.007C122.488 39.2269 123.193 38.5465 123.986 38.531C124.873 38.5137 125.531 39.3095 125.51 40.0211C125.483 40.9564 124.804 41.5454 123.984 41.5509C123.235 41.5559 122.479 40.8172 122.492 40.007Z" fill="black"/>
<path d="M105.359 45.7998H97.7695V48.0275H105.359V45.7998Z" fill="black"/>
<path d="M174.644 65.1547C176.146 65.1547 177.363 63.9951 177.363 62.5646C177.363 61.1342 176.146 59.9746 174.644 59.9746C173.143 59.9746 171.926 61.1342 171.926 62.5646C171.926 63.9951 173.143 65.1547 174.644 65.1547Z" fill="black"/>
</g>
<path d="M113.184 119.661C119.103 126.961 118.511 143.11 118.511 143.11V156.553H1.00182V61.1972C1.00182 61.1972 19.846 54.9082 28.5773 61.1972C35.8121 66.4084 38.2914 81.8316 38.2914 81.8316C38.2914 81.8316 63.3215 73.7378 75.2675 81.8316C85.41 88.7035 89.682 109.657 89.682 109.657C89.682 109.657 106.907 111.922 113.184 119.661Z" fill="white"/>
<path d="M118.503 142.797C118.503 142.797 118.876 127.429 112.857 120.278C106.68 112.939 90.6868 109.95 90.6868 109.95" stroke="black" stroke-width="1.61788" stroke-linecap="round"/>
<path d="M92.5391 119.202C92.5391 119.202 87.918 90.2923 73.9917 81.7294C58.6921 72.3222 28.087 84.9678 28.087 84.9678" stroke="black" stroke-width="1.61788" stroke-linecap="round"/>
<path d="M38.2891 81.2671C38.2891 81.2671 36.3061 67.9592 30.4064 62.7621C21.8451 55.2201 1.19437 61.3742 1.19437 61.3742" stroke="black" stroke-width="1.61788" stroke-linecap="round"/>
<defs>
<clipPath id="clip0_1442_48337">
<rect width="93.59" height="32.5007" fill="white" transform="translate(89.9883 35.8711)"/>
</clipPath>
</defs>
</svg>
