<svg width="170" height="77" viewBox="0 0 170 77" fill="none" xmlns="http://www.w3.org/2000/svg">
<path d="M14.2946 53.093L13.5033 55.2116L13.2736 51.1275L11.0273 9.03593L20.9057 8.49986L31.4988 7.91278L30.7841 9.87827L14.2946 53.093ZM48.1159 52.7866L25.8832 52.9143L20.5739 67.2341L19.7571 69.4803L31.4478 68.8422L54.0889 67.617L48.1159 52.7866ZM56.6925 11.078L56.4373 6.58545L41.6835 7.37674L42.3472 8.95932L58.7346 49.2386L56.6925 11.078Z" fill="url(#paint0_linear_192_3134)"/>
<path d="M31.7028 7.37661L31.4986 7.91265L30.7839 9.87811L14.2944 53.0928L20.9055 8.49973L21.2884 5.87061L31.7028 7.37661ZM44.4401 43.4187L36.6803 22.8196L29.2779 43.5208L44.4401 43.4187ZM54.0632 67.6424L48.1158 52.7865L25.883 52.9141L20.5737 67.234L31.4476 68.8421L56.0542 72.4922L54.0632 67.6424ZM56.6923 11.0778L42.347 8.95919L58.7344 49.2385L60.2914 53.0162L66.2899 12.5072L56.6923 11.0778Z" fill="url(#paint1_linear_192_3134)"/>
<defs>
<linearGradient id="paint0_linear_192_3134" x1="34.8746" y1="6.57481" x2="34.8746" y2="69.4852" gradientUnits="userSpaceOnUse">
<stop stop-color="#606161"/>
<stop offset="1"/>
</linearGradient>
<linearGradient id="paint1_linear_192_3134" x1="40.2901" y1="5.85539" x2="40.2901" y2="72.5014" gradientUnits="userSpaceOnUse">
<stop offset="0.2626" stop-color="#E7C96A"/>
<stop offset="0.9944" stop-color="#BD802B"/>
</linearGradient>
</defs>
</svg>
