<svg width="117" height="84" viewBox="0 0 117 84" fill="none" xmlns="http://www.w3.org/2000/svg">
<rect y="52.9764" width="69.2239" height="30.4921" rx="2.20505" fill="#F15046"/>
<rect x="5.4707" y="26.8135" width="72.2419" height="51.3848" rx="3.67508" fill="#FAF0E4"/>
<rect x="13" y="42.7493" width="53" height="22" rx="1.02959" fill="white"/>
<g clip-path="url(#clip0_192_5886)">
<path d="M36.8826 52.8009H37.7391V56.4585H36.8973L36.8533 55.9243C36.6493 56.3548 36.0836 56.5625 35.6802 56.5699C34.61 56.5774 33.8184 55.9094 33.8184 54.626C33.8184 53.3649 34.6467 52.7044 35.7023 52.7118C36.186 52.7118 36.6481 52.9422 36.8533 53.3054L36.8826 52.801V52.8009ZM34.714 54.626C34.714 55.3236 35.1904 55.7406 35.7843 55.7406C37.1918 55.7406 37.1918 53.5221 35.7843 53.5221C35.1892 53.5196 34.714 53.9287 34.714 54.626Z" fill="#212121"/>
<path d="M39.0883 51.2728V56.4585H38.2012V51.2728H39.0883Z" fill="#212121"/>
<path d="M40.8421 51.7697V52.8083H41.8389V53.5873H40.8331V55.1676C40.8331 55.5164 41.0236 55.6869 41.3021 55.6869C41.4526 55.6825 41.6005 55.6445 41.7349 55.5758L41.9842 56.3473C41.7494 56.4461 41.4979 56.4993 41.2439 56.503C40.4596 56.5327 39.9461 56.0803 39.9461 55.1676L39.946 53.5873H39.2734V52.8083H39.9477V51.8659L40.8421 51.7697Z" fill="#212121"/>
<path d="M57.5941 54.9525C57.6529 55.4066 58.0428 55.7315 58.6717 55.7315C59.0017 55.7315 59.434 55.6077 59.6391 55.3901L60.2102 55.9615C59.8292 56.3623 59.206 56.5551 58.6562 56.5551C57.4102 56.5551 56.6699 55.7761 56.6699 54.6037C56.6699 53.4891 57.4175 52.6895 58.5901 52.6895C59.7999 52.6895 60.5548 53.4466 60.4153 54.9526L57.5941 54.9525ZM59.5588 54.2033C59.5001 53.7285 59.1334 53.4908 58.6207 53.4908C58.137 53.4908 57.7414 53.7285 57.6092 54.2033H59.5588Z" fill="#D51D56"/>
<path d="M46.3459 52.801L46.412 53.2237C46.6906 52.7696 47.0646 52.7043 47.4317 52.7043C47.8057 52.7043 48.1658 52.853 48.3628 53.0532L47.9594 53.8396C47.7763 53.6839 47.6075 53.6022 47.3142 53.6022C46.8452 53.6022 46.4128 53.8544 46.4128 54.5298V56.4584L45.5176 56.4585V52.8009H46.3459V52.801Z" fill="#D51D56"/>
<path d="M43.9827 51.7697V52.8083H44.9795V53.5873H43.9754V55.1676C43.9754 55.5164 44.1659 55.6869 44.4444 55.6869C44.5948 55.6825 44.7428 55.6445 44.8772 55.5758L45.1264 56.3473C44.8918 56.4463 44.6398 56.4993 44.3858 56.503C43.6015 56.5327 43.0884 56.0803 43.0884 55.1675L43.0883 53.5873H42.4141V52.8083H43.0883V51.8659L43.9827 51.7697Z" fill="#D51D56"/>
<path d="M56.6119 52.8277L55.0727 56.5075L54.1052 56.5075L52.5586 52.8276L53.5334 52.8277L54.0318 54.0372L54.5889 55.5803L55.1387 54.0529L55.6371 52.8289L56.6119 52.8277Z" fill="#D51D56"/>
<path d="M51.4255 52.7185H52.282V56.376H51.4418L51.3978 55.8418C51.1938 56.2724 50.6281 56.4801 50.2252 56.4875C49.1549 56.4949 48.3633 55.827 48.3633 54.5436C48.3633 53.2824 49.1912 52.6219 50.2468 52.6293C50.7309 52.6293 51.1926 52.8593 51.3978 53.223L51.4255 52.7185V52.7185ZM49.2557 54.5435C49.2557 55.2408 49.7321 55.6581 50.3259 55.6581C51.7335 55.6581 51.7335 53.4397 50.3259 53.4397C49.7321 53.438 49.2557 53.8467 49.2557 54.5435Z" fill="#D51D56"/>
<path d="M18.4941 53.9969L16.3105 56.1592L17.7819 53.4408L20.6672 49.5495L22.4651 48.8953L18.4941 53.9969Z" fill="#D51D56"/>
<path d="M18.4872 57.6755L16.1348 60.0158L17.7485 57.1525L24.3668 48.2034L26.421 47.4557L18.4872 57.6755Z" fill="#D51D56"/>
<path d="M20.3215 58.9744L17.0117 62.5296L19.536 58.419L28.1299 46.8336L30.3242 46.0486L20.3215 58.9744Z" fill="#D51D56"/>
<path d="M30.3381 49.6713L22.1346 60.2579L18.7871 63.864L21.3488 59.7018L30.3381 47.5818V49.6713Z" fill="#D51D56"/>
<path d="M30.3382 53.2439L23.9247 61.5253L21.457 64.0185L23.1824 60.9999L30.3382 51.3159V53.2439Z" fill="#D51D56"/>
<path d="M30.3383 56.7942L27.3643 60.6214L25.1602 62.7989L26.6447 60.0837L30.3383 55.0915V56.7942Z" fill="#D51D56"/>
<path d="M60.9905 56.7209V52.7214H61.8385V56.0206H63.4608V56.7209H60.9905Z" fill="#D51D56"/>
</g>
<path d="M49.7811 22.5753C46.2871 18.2568 46.6367 8.7028 46.6367 8.7028V0.749207H115.999V57.1642C115.999 57.1642 104.876 60.885 99.7223 57.1642C95.4517 54.0811 93.9883 44.9564 93.9883 44.9564C93.9883 44.9564 79.2136 49.7449 72.1621 44.9564C66.1753 40.8908 63.6537 28.4943 63.6537 28.4943C63.6537 28.4943 53.4859 27.1544 49.7811 22.5753Z" fill="white"/>
<path d="M46.6374 8.888C46.6374 8.888 46.4174 17.9801 49.9702 22.2107C53.6162 26.5524 63.0568 28.3208 63.0568 28.3208" stroke="black" stroke-width="0.957176" stroke-linecap="round"/>
<path d="M61.9648 22.8472C61.9648 22.8472 64.6926 39.9511 72.9129 45.017C81.9439 50.5826 100.009 43.1011 100.009 43.1011" stroke="black" stroke-width="0.957176" stroke-linecap="round"/>
<path d="M93.9883 45.2906C93.9883 45.2906 95.1588 53.1638 98.6412 56.2386C103.695 60.7006 115.884 57.0597 115.884 57.0597" stroke="black" stroke-width="0.957176" stroke-linecap="round"/>
<defs>
<clipPath id="clip0_192_5886">
<rect width="53" height="18" fill="white" transform="translate(13 44.7493)"/>
</clipPath>
</defs>
</svg>
