<svg width="209" height="157" viewBox="0 0 209 157" fill="none" xmlns="http://www.w3.org/2000/svg">
<rect y="100.336" width="126.317" height="55.7583" rx="4.13024" fill="#F15046"/>
<rect x="9.98242" y="52.4939" width="131.824" height="93.963" rx="6.88373" fill="#FAF0E4"/>
<g clip-path="url(#clip0_192_3879)">
<path d="M110.483 65.2288H41.6465V134.065H110.483V65.2288Z" fill="#00008F"/>
<path d="M80.3496 99.2235H84.3028L110.483 65.2282H106.616L80.3496 99.2235Z" fill="#FF1721"/>
<path d="M94.2431 114.394C95.4429 117.751 97.9153 126.486 98.8982 127.182H92.4074C92.3879 126.41 92.2858 125.642 92.1028 124.891C91.8229 123.893 89.4751 116.34 89.4751 116.34H79.1651L77.5441 118.638C77.5441 118.638 79.4911 124.732 79.612 125.031C79.822 125.57 80.7516 127.182 80.7516 127.182H74.5312C74.5312 127.182 74.37 126.251 74.3095 125.864C74.2608 125.551 73.7201 123.836 73.7201 123.836C73.7201 123.836 72.3103 125.381 71.9261 126.097C71.5383 126.812 71.3664 127.182 71.3664 127.182H66.5001C66.5001 127.182 66.3376 126.251 66.2772 125.864C66.2298 125.551 65.6345 123.699 65.6345 123.699C65.6345 123.699 64.2722 125.353 63.8843 126.068C63.499 126.784 63.333 127.182 63.333 127.182H58.5201C58.5201 127.182 59.8801 125.887 60.3556 125.331C61.1571 124.389 64.1441 120.485 64.1441 120.485L62.9465 116.34H52.7147C52.7147 116.34 46.8808 124.006 46.6508 124.243C46.4184 124.476 44.718 126.917 44.68 127.182H41.6445V125.252C41.6822 125.211 41.7222 125.172 41.7643 125.136C41.858 125.067 46.1871 119.693 50.1641 114.394C53.738 109.773 57.0913 105.279 57.3853 104.851C58.0979 103.816 59.1248 101.581 59.1248 101.581H64.4143C64.4143 101.581 64.578 103.637 64.7322 104.136C64.8697 104.577 68.0925 115.152 68.1684 115.266L69.9506 112.986L66.9044 103.61C66.9044 103.61 66.1906 101.845 65.9582 101.581H72.1372C72.1154 102.148 72.1834 102.715 72.3387 103.261C72.5901 104.034 73.9146 108.814 73.9146 108.814C73.9146 108.814 78.1288 103.531 78.3754 103.152C78.6747 102.679 78.8535 102.139 78.8959 101.581H84.0444C84.0444 101.581 83.1018 102.27 81.45 104.359C80.8951 105.062 75.4584 111.972 75.4584 111.972C75.4584 111.972 75.9328 113.589 76.1639 114.394C76.2268 114.625 76.2707 114.782 76.2707 114.798C76.2707 114.805 76.3904 114.658 76.5967 114.394C77.9995 112.617 84.38 104.25 84.7666 103.534C85.0784 102.955 85.5372 102.297 85.8064 101.581H90.8292C90.8292 101.581 90.9454 103.081 91.0984 103.496L94.2431 114.394ZM86.5996 106.474C85.8621 108.061 81.5211 113.346 81.5211 113.346H88.3961C88.3961 113.346 87.0634 109.242 86.831 108.317C86.7122 107.726 86.6668 107.122 86.6957 106.519C86.6957 106.435 86.6803 106.299 86.5996 106.474ZM60.1848 106.474C59.4473 108.061 55.1063 113.346 55.1063 113.346H61.9812C61.9812 113.346 60.6497 109.242 60.4173 108.317C60.2986 107.726 60.2531 107.122 60.2821 106.519C60.2821 106.435 60.2655 106.299 60.1848 106.474ZM70.5353 122.499L72.4277 119.899C72.2534 119.712 71.1874 116.48 71.1874 116.48L69.3577 118.853L70.5353 122.499Z" fill="white"/>
</g>
<path d="M105.803 34.2756C100.411 27.6106 100.951 12.8656 100.951 12.8656V0.590622H208V87.6576C208 87.6576 190.833 93.4 182.879 87.6576C176.288 82.8994 174.03 68.8169 174.03 68.8169C174.03 68.8169 151.227 76.2071 140.345 68.8169C131.105 62.5424 127.213 43.4104 127.213 43.4104C127.213 43.4104 111.521 41.3425 105.803 34.2756Z" fill="white"/>
<path d="M100.955 13.1514C100.955 13.1514 100.616 27.1835 106.099 33.7127C111.726 40.4134 126.296 43.1426 126.296 43.1426" stroke="black" stroke-width="1.47724" stroke-linecap="round"/>
<path d="M124.609 34.695C124.609 34.695 128.819 61.0919 141.506 68.9103C155.444 77.4998 183.325 65.9534 183.325 65.9534" stroke="black" stroke-width="1.47724" stroke-linecap="round"/>
<path d="M174.031 69.3324C174.031 69.3324 175.838 81.4835 181.212 86.2289C189.012 93.1152 207.824 87.4961 207.824 87.4961" stroke="black" stroke-width="1.47724" stroke-linecap="round"/>
<defs>
<clipPath id="clip0_192_3879">
<rect x="41.6465" y="65.2285" width="68.8373" height="68.8373" rx="2.06512" fill="white"/>
</clipPath>
</defs>
</svg>
