<svg width="90" height="90" viewBox="0 0 90 90" fill="none" xmlns="http://www.w3.org/2000/svg">
<path d="M89.9996 0.000427246H0.000488281V89.9995H89.9996V0.000427246Z" fill="#00008F"/>
<path d="M50.6025 44.4464H55.7711L89.9998 0H84.9443L50.6025 44.4464Z" fill="#FF1721"/>
<path d="M68.7689 64.2808C70.3376 68.6695 73.5701 80.0905 74.8551 81.0005H66.3689C66.3434 79.9907 66.2099 78.9866 65.9706 78.0054C65.6047 76.7 62.5352 66.8247 62.5352 66.8247H49.0555L46.9362 69.8292C46.9362 69.8292 49.4817 77.7976 49.6399 78.1882C49.9143 78.8921 51.1297 81.0005 51.1297 81.0005H42.997C42.997 81.0005 42.7862 79.7835 42.7071 79.2766C42.6435 78.8674 41.9366 76.6257 41.9366 76.6257C41.9366 76.6257 40.0934 78.6456 39.5911 79.582C39.084 80.5168 38.8592 81.0005 38.8592 81.0005H32.4969C32.4969 81.0005 32.2845 79.7835 32.2055 79.2766C32.1436 78.8674 31.3652 76.4458 31.3652 76.4458C31.3652 76.4458 29.584 78.6084 29.077 79.5432C28.5731 80.4796 28.3561 81.0005 28.3561 81.0005H22.0637C22.0637 81.0005 23.8418 79.3076 24.4635 78.5805C25.5113 77.348 29.4166 72.2445 29.4166 72.2445L27.8508 66.8247H14.4734C14.4734 66.8247 6.84603 76.8473 6.54536 77.1573C6.24152 77.4628 4.0184 80.6533 3.96871 81.0005H0V78.4767C0.0492241 78.4231 0.101485 78.3724 0.156526 78.3248C0.27908 78.2347 5.9391 71.2089 11.1387 64.2808C15.8113 58.2393 20.1955 52.3637 20.58 51.8041C21.5117 50.4507 22.8542 47.5285 22.8542 47.5285H29.7699C29.7699 47.5285 29.9839 50.2166 30.1855 50.8692C30.3652 51.4459 34.5789 65.2713 34.6781 65.4202L37.0082 62.4405L33.0256 50.1809C33.0256 50.1809 32.0923 47.8741 31.7884 47.5285H39.867C39.8385 48.27 39.9274 49.0114 40.1305 49.7251C40.4591 50.736 42.1909 56.9852 42.1909 56.9852C42.1909 56.9852 47.7006 50.0786 48.023 49.5826C48.4144 48.9638 48.6481 48.2585 48.7036 47.5285H55.4348C55.4348 47.5285 54.2024 48.4291 52.0428 51.1607C51.3173 52.08 44.2092 61.1136 44.2092 61.1136C44.2092 61.1136 44.8295 63.2281 45.1317 64.2808C45.2139 64.583 45.2713 64.7876 45.2713 64.8094C45.2713 64.8188 45.4278 64.6265 45.6975 64.2808C47.5315 61.9568 55.8736 51.0181 56.3791 50.0817C56.7867 49.3252 57.3866 48.4648 57.7386 47.5285H64.3055C64.3055 47.5285 64.4574 49.4895 64.6575 50.0321L68.7689 64.2808ZM58.7757 53.9264C57.8114 56.0008 52.1359 62.9103 52.1359 62.9103H61.1244C61.1244 62.9103 59.3819 57.5447 59.0781 56.3356C58.9228 55.5624 58.8634 54.773 58.9012 53.9853C58.9012 53.8753 58.8811 53.697 58.7757 53.9264ZM24.2401 53.9264C23.2759 56.0008 17.6003 62.9103 17.6003 62.9103H26.5888C26.5888 62.9103 24.8479 57.5447 24.5441 56.3356C24.3888 55.5624 24.3294 54.773 24.3673 53.9853C24.3673 53.8753 24.3457 53.697 24.2401 53.9264ZM37.7726 74.8769L40.2469 71.4787C40.0189 71.2338 38.6253 67.0077 38.6253 67.0077L36.2331 70.1113L37.7726 74.8769Z" fill="white"/>
</svg>
