<svg width="30" height="30" viewBox="0 0 30 30" fill="none" xmlns="http://www.w3.org/2000/svg">
<g clip-path="url(#clip0_192_6113)">
<g filter="url(#filter0_d_192_6113)">
<path d="M16.1751 15L23.0835 8.09168C23.22 7.93226 23.2913 7.7272 23.2832 7.51747C23.2751 7.30774 23.1882 7.10879 23.0398 6.96038C22.8914 6.81196 22.6924 6.72502 22.4827 6.71692C22.273 6.70882 22.0679 6.78016 21.9085 6.91668L15.0001 13.825L8.09181 6.90835C7.93489 6.75143 7.72206 6.66327 7.50014 6.66327C7.27822 6.66327 7.06539 6.75143 6.90847 6.90835C6.75155 7.06527 6.6634 7.27809 6.6634 7.50001C6.6634 7.72193 6.75155 7.93476 6.90847 8.09168L13.8251 15L6.90847 21.9083C6.82124 21.9831 6.75039 22.075 6.70037 22.1784C6.65035 22.2818 6.62224 22.3944 6.61781 22.5091C6.61338 22.6239 6.63271 22.7383 6.67461 22.8453C6.7165 22.9522 6.78005 23.0493 6.86127 23.1306C6.94248 23.2118 7.0396 23.2753 7.14654 23.3172C7.25348 23.3591 7.36792 23.3784 7.48268 23.374C7.59745 23.3696 7.71006 23.3415 7.81345 23.2915C7.91684 23.2414 8.00877 23.1706 8.08347 23.0833L15.0001 16.175L21.9085 23.0833C22.0679 23.2199 22.273 23.2912 22.4827 23.2831C22.6924 23.275 22.8914 23.1881 23.0398 23.0396C23.1882 22.8912 23.2751 22.6923 23.2832 22.4826C23.2913 22.2728 23.22 22.0678 23.0835 21.9083L16.1751 15Z" fill="#956F3E"/>
</g>
</g>
<defs>
<filter id="filter0_d_192_6113" x="2.61719" y="6.66327" width="24.6665" height="24.7114" filterUnits="userSpaceOnUse" color-interpolation-filters="sRGB">
<feFlood flood-opacity="0" result="BackgroundImageFix"/>
<feColorMatrix in="SourceAlpha" type="matrix" values="0 0 0 0 0 0 0 0 0 0 0 0 0 0 0 0 0 0 127 0" result="hardAlpha"/>
<feOffset dy="4"/>
<feGaussianBlur stdDeviation="2"/>
<feComposite in2="hardAlpha" operator="out"/>
<feColorMatrix type="matrix" values="0 0 0 0 0 0 0 0 0 0 0 0 0 0 0 0 0 0 0.25 0"/>
<feBlend mode="normal" in2="BackgroundImageFix" result="effect1_dropShadow_192_6113"/>
<feBlend mode="normal" in="SourceGraphic" in2="effect1_dropShadow_192_6113" result="shape"/>
</filter>
<clipPath id="clip0_192_6113">
<rect width="30" height="30" fill="white"/>
</clipPath>
</defs>
</svg>
