<svg width="31" height="30" viewBox="0 0 31 30" fill="none" xmlns="http://www.w3.org/2000/svg">
<path d="M27.1508 8.92625L26.5338 7.8555C26.0672 7.04571 25.8339 6.64083 25.4369 6.47936C25.0399 6.31791 24.5909 6.44531 23.693 6.70011L22.1678 7.12974C21.5945 7.26194 20.993 7.18694 20.4697 6.918L20.0485 6.67504C19.5997 6.38755 19.2544 5.96368 19.0633 5.46544L18.6459 4.21871C18.3714 3.39369 18.2342 2.98118 17.9074 2.74523C17.5808 2.50928 17.1468 2.50928 16.2788 2.50928H14.8853C14.0174 2.50928 13.5834 2.50928 13.2567 2.74523C12.93 2.98118 12.7927 3.39369 12.5183 4.21871L12.1008 5.46544C11.9097 5.96368 11.5645 6.38755 11.1156 6.67504L10.6945 6.918C10.1711 7.18694 9.56964 7.26194 8.99638 7.12974L7.47109 6.70011C6.57317 6.44531 6.12422 6.31791 5.72724 6.47936C5.33027 6.64083 5.09697 7.04571 4.63034 7.8555L4.01337 8.92625C3.57598 9.68531 3.35728 10.0649 3.39973 10.4689C3.44217 10.8729 3.73494 11.1985 4.32048 11.8497L5.60928 13.2905C5.92428 13.6893 6.14792 14.3843 6.14792 15.0091C6.14792 15.6343 5.92435 16.329 5.60932 16.7279L4.32048 18.1688C3.73494 18.82 3.44218 19.1455 3.39973 19.5496C3.35728 19.9536 3.57598 20.3331 4.01337 21.0921L4.63033 22.1629C5.09694 22.9726 5.33027 23.3776 5.72724 23.539C6.12422 23.7005 6.57318 23.5731 7.47112 23.3183L8.99633 22.8886C9.56969 22.7564 10.1712 22.8315 10.6947 23.1005L11.1158 23.3435C11.5645 23.631 11.9097 24.0548 12.1008 24.553L12.5183 25.7999C12.7927 26.6249 12.93 27.0374 13.2567 27.2734C13.5834 27.5093 14.0174 27.5093 14.8853 27.5093H16.2788C17.1468 27.5093 17.5808 27.5093 17.9074 27.2734C18.2342 27.0374 18.3714 26.6249 18.6459 25.7999L19.0634 24.553C19.2544 24.0548 19.5995 23.631 20.0484 23.3435L20.4694 23.1005C20.9929 22.8315 21.5944 22.7564 22.1678 22.8886L23.693 23.3183C24.5909 23.5731 25.0399 23.7005 25.4369 23.539C25.8339 23.3776 26.0672 22.9726 26.5338 22.1629L27.1508 21.0921C27.5882 20.3331 27.8068 19.9536 27.7644 19.5496C27.7219 19.1455 27.4292 18.82 26.8437 18.1688L25.5548 16.7279C25.2398 16.329 25.0162 15.6343 25.0162 15.0091C25.0162 14.3843 25.2399 13.6893 25.5548 13.2905L26.8437 11.8497C27.4292 11.1985 27.7219 10.8729 27.7644 10.4689C27.8068 10.0649 27.5882 9.68531 27.1508 8.92625Z" stroke="#533D13" stroke-width="1.25" stroke-linecap="round"/>
<path d="M19.9023 14.9995C19.9023 17.4158 17.9436 19.3745 15.5273 19.3745C13.1111 19.3745 11.1523 17.4158 11.1523 14.9995C11.1523 12.5833 13.1111 10.6245 15.5273 10.6245C17.9436 10.6245 19.9023 12.5833 19.9023 14.9995Z" stroke="#533D13" stroke-width="1.25"/>
</svg>
