<svg width="30" height="30" viewBox="0 0 30 30" fill="none" xmlns="http://www.w3.org/2000/svg">
<path d="M26.9261 13.8067C27.3061 14.3396 27.4961 14.6061 27.4961 15.0005C27.4961 15.3949 27.3061 15.6614 26.9261 16.1942C25.2185 18.5887 20.8576 23.7505 14.9961 23.7505C9.13457 23.7505 4.77372 18.5887 3.06614 16.1942C2.68611 15.6614 2.49609 15.3949 2.49609 15.0005C2.49609 14.6061 2.68611 14.3396 3.06614 13.8067C4.77372 11.4123 9.13457 6.25049 14.9961 6.25049C20.8576 6.25049 25.2185 11.4123 26.9261 13.8067Z" stroke="#48361E" stroke-width="1.25"/>
<path d="M18.75 15C18.75 12.9289 17.0711 11.25 15 11.25C12.9289 11.25 11.25 12.9289 11.25 15C11.25 17.0711 12.9289 18.75 15 18.75C17.0711 18.75 18.75 17.0711 18.75 15Z" stroke="#48361E" stroke-width="1.25"/>
</svg>
