<svg width="97" height="51" viewBox="0 0 97 51" fill="none" xmlns="http://www.w3.org/2000/svg">
<rect x="0.558594" width="95.6842" height="50.9561" rx="1.69854" fill="white"/>
<g clip-path="url(#clip0_1442_47530)">
<path d="M11.685 17.0833C13.0126 17.0833 14.0888 16.0579 14.0888 14.7931C14.0888 13.5283 13.0126 12.5029 11.685 12.5029C10.3574 12.5029 9.28125 13.5283 9.28125 14.7931C9.28125 16.0579 10.3574 17.0833 11.685 17.0833Z" fill="#F60C01"/>
<path d="M70.1334 34.7582C69.924 34.7885 69.7361 34.8039 69.5915 34.8055C68.3191 34.8197 67.025 34.5908 65.7539 34.5058C62.6409 34.2976 59.5362 33.9933 56.4198 33.8278C53.5109 33.6733 50.5942 33.5963 47.6816 33.6606C44.8146 33.724 41.9427 33.824 39.0811 34.0136C36.2569 34.2008 33.4226 34.4052 30.6148 34.7676C27.9675 35.1093 25.3508 35.6352 22.7533 36.2462C22.4839 36.3095 22.2021 36.3345 21.9388 36.4224C21.5993 36.5356 21.1112 36.6218 20.8849 36.9084C20.6338 37.2264 20.5942 37.5705 20.2101 37.7889C19.7941 38.0255 19.2333 38.0988 18.7705 38.1979C17.7585 38.4148 16.6916 38.4457 15.6613 38.3737C14.0652 38.2622 11.0779 37.3922 12.5041 35.2835C12.5124 35.2712 12.524 35.2588 12.537 35.2523C12.7924 35.1235 13.0496 34.9983 13.3032 34.866C13.3775 34.8272 13.4366 34.7587 13.5116 34.7216C14.3944 34.285 15.3027 34.0582 16.2323 33.7494C16.9951 33.4961 17.7604 33.2503 18.5298 33.0181C20.1198 32.5384 21.7275 32.1191 23.3518 31.773C26.8079 31.0364 30.3244 30.6242 33.8461 30.3689C37.4352 30.1087 41.0355 30.0017 44.6334 29.9739C48.2626 29.9459 51.894 30.004 55.5183 30.2016C59.1025 30.3971 62.6718 30.7562 66.2364 31.1723C67.4773 31.3171 68.651 31.5001 69.8676 31.8039C70.5757 31.9807 71.4118 32.2025 71.928 32.7572C73.0679 33.9823 71.2792 34.5925 70.1334 34.7582Z" fill="#F60C01"/>
<path d="M25.8409 20.7569C25.8409 18.9073 25.8433 17.0578 25.8369 15.2082C25.8363 15.0356 25.7975 14.8574 25.7444 14.6921C25.6752 14.4763 25.4552 14.4549 25.2774 14.3833C25.0967 14.3105 24.8633 14.312 24.7792 14.0922C24.7267 13.9548 24.7098 13.8022 24.6915 13.6545C24.6883 13.6286 24.7532 13.5823 24.7946 13.5662C24.8344 13.5508 24.8847 13.5622 24.9303 13.5622C27.3708 13.5621 29.8113 13.5711 32.2516 13.5559C32.8892 13.5519 33.53 13.5094 34.1586 13.3767C34.2101 13.3658 34.2548 13.326 34.3052 13.306C34.444 13.2513 34.5057 13.3054 34.5051 13.454C34.5018 14.2551 34.5051 15.0561 34.5028 15.8572C34.502 16.1566 34.4966 16.4563 34.481 16.7553C34.4787 16.7982 34.4073 16.8717 34.3666 16.8726C34.1625 16.8772 33.955 16.8803 33.7547 16.8472C33.647 16.8294 33.5064 16.7621 33.4593 16.6747C33.3329 16.44 33.2493 16.1823 33.1479 15.9341C33.0448 15.6818 32.96 15.4194 32.8314 15.1808C32.7119 14.9591 32.5288 14.7724 32.2823 14.69C32.0714 14.6194 31.8486 14.5484 31.6296 14.5437C30.5098 14.5196 29.3896 14.5164 28.2696 14.5071C27.9712 14.5046 27.9712 14.5066 27.9712 14.8086C27.9712 16.4448 27.9729 18.0809 27.9682 19.7171C27.9678 19.8601 28.0009 19.9103 28.1522 19.9071C28.6238 19.897 29.0962 19.914 29.5675 19.8985C29.9068 19.8873 30.2504 19.8656 30.5725 19.743C30.7705 19.6677 30.887 19.4957 30.9826 19.3144C31.0735 19.142 31.1522 18.9629 31.2465 18.7924C31.3229 18.6542 31.4477 18.5908 31.6092 18.5903C31.7553 18.5898 31.9013 18.5718 32.0476 18.5677C32.1578 18.5645 32.2066 18.619 32.207 18.7356C32.2099 19.6752 32.2177 20.6149 32.2224 21.5545C32.2234 21.7572 32.2283 21.9607 32.2123 22.1623C32.2004 22.3131 32.1233 22.3532 31.9763 22.3376C31.888 22.3283 31.7968 22.3304 31.7085 22.3407C31.5014 22.3647 31.2542 22.1992 31.1676 21.9938C31.063 21.7457 30.9652 21.4895 30.8204 21.2653C30.6792 21.0465 30.4282 20.9312 30.1778 20.9164C29.4917 20.8756 28.8036 20.8715 28.1166 20.8467C27.9828 20.8419 27.9697 20.9075 27.9699 21.0141C27.972 22.1777 27.9712 23.3413 27.9712 24.5049C27.9712 25.1095 27.9635 25.7144 27.9763 26.3188C27.9797 26.4793 28.0402 26.6401 28.0868 26.7971C28.1005 26.8432 28.1493 26.8945 28.1944 26.9128C28.3881 26.9913 28.5905 27.0489 28.7811 27.1338C28.8691 27.1729 28.9746 27.2427 29.0058 27.3241C29.0562 27.4556 29.0626 27.6079 29.0669 27.7521C29.0701 27.859 28.9826 27.8907 28.887 27.8909C28.6942 27.8912 28.5014 27.8911 28.3086 27.8911C27.1822 27.8909 26.0559 27.8909 24.9295 27.8905C24.7243 27.8905 24.7026 27.8711 24.7139 27.6602C24.7194 27.5572 24.7317 27.4511 24.7631 27.3536C24.8428 27.1059 25.0896 27.0956 25.2793 27.049C25.7609 26.9307 25.8155 26.752 25.8324 26.3356C25.8612 25.6254 25.8408 24.9132 25.8408 24.2018C25.8409 23.0535 25.8409 21.9052 25.8409 20.7569Z" fill="black"/>
<path d="M50.2859 19.0411C50.3715 18.9839 50.4574 18.9352 50.5334 18.8741C50.9114 18.5704 51.3223 18.3188 51.777 18.1549C52.2158 17.9967 52.6717 17.9145 53.1422 17.8821C53.5954 17.8509 54.0422 17.882 54.4813 17.9589C55.1969 18.0842 55.8244 18.3983 56.2521 19.0128C56.4065 19.2346 56.5434 19.4831 56.6207 19.7398C56.6889 19.966 56.6761 20.2207 56.6766 20.4628C56.6803 22.3529 56.6769 24.243 56.6815 26.1331C56.6819 26.3127 56.711 26.4948 56.7502 26.6705C56.7655 26.7394 56.8347 26.8106 56.8982 26.8515C57.0577 26.9543 57.2235 27.0423 57.4266 27.0416C57.583 27.0411 57.7364 27.2429 57.7414 27.4669C57.7519 27.9412 57.773 27.892 57.3665 27.8918C56.1793 27.891 54.9921 27.8917 53.805 27.8917C53.5987 27.8917 53.5725 27.8671 53.5751 27.6526C53.5768 27.5044 53.5292 27.3355 53.6669 27.2266C53.7675 27.1471 53.8893 27.058 54.0088 27.0463C54.2693 27.0208 54.4912 26.9363 54.6476 26.7309C54.7051 26.6554 54.7264 26.5353 54.7266 26.4355C54.7316 24.7181 54.7322 23.0008 54.7295 21.2834C54.729 20.944 54.7423 20.5999 54.693 20.2663C54.6183 19.7601 54.3882 19.3417 53.8925 19.1079C53.4707 18.9089 53.0324 18.7977 52.5699 18.8421C52.3214 18.8659 52.0804 18.9606 51.8329 19.0061C51.5431 19.0594 51.3042 19.2169 51.0759 19.3796C50.8525 19.5389 50.6597 19.7421 50.4599 19.9327C50.426 19.9649 50.4097 20.0308 50.4096 20.0812C50.4072 22.1999 50.4066 24.3186 50.4091 26.4374C50.4094 26.6262 50.5211 26.8902 50.7732 26.9495C50.9408 26.9888 51.1039 27.0472 51.2703 27.0922C51.4596 27.1434 51.4945 27.3056 51.5003 27.4556C51.5197 27.9643 51.5247 27.8909 51.1093 27.8912C49.9475 27.892 48.7857 27.8915 47.6239 27.8914C47.4415 27.8914 47.4243 27.8735 47.4242 27.6897C47.4241 27.6186 47.4219 27.5475 47.4224 27.4764C47.424 27.2369 47.5691 27.1027 47.8031 27.0302C47.9984 26.9696 48.2047 26.8772 48.3474 26.7383C48.4397 26.6485 48.4548 26.4496 48.4555 26.2995C48.4624 24.6279 48.4599 22.9562 48.4599 21.2846C48.4599 20.7511 48.4652 20.2175 48.4569 19.6842C48.454 19.5042 48.4274 19.3124 48.2711 19.1949C48.1663 19.1162 48.0332 19.0745 47.9114 19.0195C47.7982 18.9685 47.6765 18.9329 47.5704 18.8703C47.4386 18.7927 47.4202 18.6577 47.422 18.5123C47.4267 18.138 47.4229 18.1397 47.7982 18.133C48.2291 18.1253 48.6601 18.1189 49.0906 18.1028C49.4028 18.0911 49.7146 18.0663 50.0262 18.0437C50.2157 18.0299 50.2846 18.089 50.2856 18.2821C50.2868 18.5233 50.2859 18.7646 50.2859 19.0411Z" fill="black"/>
<path d="M65.1474 22.7128C64.1786 22.7128 63.2098 22.713 62.2411 22.7127C61.988 22.7127 61.735 22.7121 61.482 22.7102C61.3673 22.7093 61.3031 22.7351 61.2975 22.8781C61.2822 23.2625 61.2779 23.6457 61.3695 24.0208C61.4628 24.4032 61.5379 24.7965 61.6874 25.1574C61.8937 25.6553 62.203 26.0949 62.6182 26.4547C62.9268 26.7221 63.2773 26.8974 63.6539 27.0465C63.9899 27.1796 64.337 27.2486 64.6873 27.2696C64.9689 27.2865 65.258 27.2344 65.5393 27.1865C65.9074 27.1239 66.241 26.9635 66.5581 26.7677C66.9919 26.4997 67.3403 26.1378 67.6656 25.7527C67.8157 25.575 67.8531 25.5627 68.028 25.7056C68.1486 25.8041 68.2698 25.9054 68.4038 25.9829C68.5135 26.0463 68.5105 26.1082 68.4414 26.1858C68.2236 26.4304 68.0093 26.6786 67.7805 26.9127C67.4197 27.2819 67.0074 27.5881 66.5425 27.8112C66.3393 27.9087 66.1115 27.9573 65.892 28.0182C65.6491 28.0855 65.4055 28.1768 65.1576 28.1946C64.7195 28.2259 64.276 28.2363 63.8384 28.2046C63.4824 28.1788 63.1298 28.0879 62.7798 28.0078C62.6066 27.9681 62.432 27.9072 62.2767 27.8219C61.9137 27.6222 61.5452 27.4253 61.21 27.1841C60.7952 26.8856 60.437 26.5151 60.1433 26.0951C59.8367 25.6566 59.5943 25.1854 59.4361 24.6654C59.2567 24.0758 59.1617 23.4773 59.1825 22.8678C59.1965 22.4583 59.2707 22.0485 59.3465 21.6442C59.3994 21.3623 59.4756 21.0789 59.5857 20.8147C59.8418 20.2004 60.2034 19.6542 60.6874 19.1882C61.069 18.8208 61.4937 18.5292 61.9759 18.3125C62.4492 18.0998 62.9349 17.947 63.4566 17.9194C63.6417 17.9096 63.8281 17.8517 64.0098 17.8667C64.4346 17.9018 64.857 17.9663 65.2801 18.0215C65.6647 18.0716 66.0024 18.2581 66.3239 18.4476C66.8689 18.7688 67.2968 19.2225 67.6376 19.7622C67.8705 20.131 68.0328 20.5281 68.1587 20.9389C68.2373 21.1953 68.2682 21.4679 68.3041 21.7355C68.3381 21.9894 68.3568 22.246 68.3706 22.502C68.3816 22.7061 68.3731 22.7085 68.1754 22.7086C67.1661 22.709 66.1568 22.7088 65.1475 22.7088C65.1474 22.7101 65.1474 22.7115 65.1474 22.7128ZM63.9998 21.7421C63.9998 21.7424 63.9998 21.7427 63.9998 21.743C64.679 21.743 65.3581 21.7408 66.0372 21.745C66.1614 21.7457 66.2022 21.6947 66.1907 21.5802C66.1557 21.2326 66.1522 20.8784 66.0802 20.5387C65.9312 19.8348 65.5718 19.2856 64.8646 19.0091C64.2976 18.7875 63.7275 18.7714 63.1577 18.953C62.9278 19.0262 62.7005 19.1466 62.5092 19.2939C62.1206 19.5933 61.8412 19.9932 61.6825 20.4554C61.5552 20.8264 61.4844 21.217 61.3922 21.5998C61.3675 21.7022 61.4142 21.7509 61.5228 21.7473C61.6843 21.7418 61.8459 21.7424 62.0075 21.7423C62.6716 21.7419 63.3358 21.7421 63.9998 21.7421Z" fill="black"/>
<path d="M82.7757 28.1777C82.3909 28.1531 82.0065 28.163 81.6361 28.0956C81.2166 28.0192 80.808 27.8792 80.3978 27.7563C80.0601 27.655 79.7644 27.4723 79.4832 27.2603C79.0847 26.9601 78.8395 26.3721 78.9609 25.9597C79.0644 25.6085 79.3157 25.3955 79.6307 25.2319C79.9113 25.0862 80.2172 25.1029 80.4873 25.1652C80.844 25.2475 81.1616 25.4609 81.309 25.8314C81.3468 25.9267 81.3325 26.0494 81.3192 26.1566C81.3071 26.2541 81.2599 26.3467 81.2349 26.4432C81.1492 26.7737 81.3209 27.1012 81.6378 27.2215C82.1799 27.4274 82.7308 27.454 83.2973 27.3329C83.7848 27.2287 84.2142 27.0317 84.5748 26.6779C84.8037 26.4533 84.9 26.1697 84.951 25.8773C85.0227 25.4665 84.9544 25.0599 84.6511 24.7542C84.4489 24.5505 84.1984 24.3891 83.9523 24.2368C83.7677 24.1226 83.5592 24.0433 83.3547 23.9662C83.1499 23.889 82.9358 23.8369 82.7277 23.768C82.4441 23.6742 82.1648 23.5665 81.8791 23.48C81.4368 23.3459 81.0205 23.1609 80.6332 22.9074C80.1316 22.5792 79.7409 22.1569 79.5328 21.5887C79.4685 21.4131 79.44 21.2202 79.4221 21.0326C79.3899 20.6942 79.4152 20.354 79.5159 20.03C79.6095 19.7287 79.7692 19.453 79.9753 19.213C80.2392 18.9057 80.5503 18.6496 80.9094 18.4602C81.1339 18.3417 81.3622 18.2239 81.6006 18.1396C81.9078 18.031 82.2255 17.9503 82.5418 17.87C82.6627 17.8393 82.7924 17.8318 82.9178 17.8332C83.348 17.8377 83.7809 17.8236 84.2076 17.8675C84.7934 17.9278 85.3544 18.0991 85.8485 18.4338C86.1362 18.6286 86.3057 18.9036 86.4 19.2505C86.482 19.5521 86.4404 19.8169 86.2862 20.0557C86.0883 20.3624 85.7798 20.5177 85.413 20.5432C85.0774 20.5665 84.7744 20.5071 84.4935 20.2891C84.1849 20.0496 84.0893 19.7615 84.145 19.3897C84.1662 19.2484 84.1637 19.0937 84.1271 18.9571C84.1051 18.8748 84.0088 18.7882 83.9249 18.7511C83.5825 18.5998 83.2238 18.5739 82.8493 18.6102C82.5199 18.6421 82.2295 18.7555 81.9641 18.934C81.5449 19.2158 81.2554 19.6003 81.2837 20.1241C81.3065 20.5448 81.4866 20.9073 81.8625 21.1568C82.2512 21.4148 82.6846 21.5635 83.1149 21.721C83.5635 21.8853 84.0159 22.0405 84.4711 22.1856C84.916 22.3274 85.3335 22.526 85.7169 22.787C86.2218 23.1308 86.6104 23.5701 86.8246 24.1616C86.9752 24.5777 86.9783 25.0061 86.9216 25.4175C86.859 25.8715 86.6547 26.2967 86.3528 26.6592C85.9189 27.1801 85.3756 27.5592 84.7544 27.808C84.2871 27.9952 83.7968 28.1276 83.2834 28.1369C83.1124 28.14 82.9417 28.1638 82.7757 28.1777Z" fill="black"/>
<path d="M73.7125 28.1886C73.2153 28.1543 72.8421 28.1613 72.482 28.0959C71.9878 28.006 71.4965 27.8915 71.0335 27.6756C70.7442 27.5407 70.4734 27.3873 70.2457 27.164C69.9961 26.9192 69.8151 26.6267 69.7783 26.278C69.7413 25.9279 69.9187 25.6627 70.1717 25.4229C70.5142 25.0982 70.9317 25.0884 71.3301 25.1638C71.6713 25.2284 71.9894 25.4397 72.1389 25.782C72.1974 25.9159 72.1778 26.1145 72.1269 26.2602C71.9757 26.6934 72.0477 27.0416 72.5434 27.2309C72.9406 27.3827 73.3422 27.4333 73.7514 27.3977C74.3163 27.3485 74.8569 27.1917 75.2914 26.8044C75.708 26.433 75.9029 25.9515 75.8171 25.395C75.7628 25.0433 75.56 24.7542 75.2794 24.5285C74.9586 24.2705 74.582 24.1164 74.2048 23.9687C73.9145 23.855 73.6154 23.7636 73.3191 23.6657C73.0231 23.568 72.722 23.4846 72.4298 23.377C71.7601 23.1304 71.1568 22.7776 70.7118 22.203C70.323 21.7007 70.1776 21.1125 70.2646 20.4971C70.3641 19.793 70.6977 19.2007 71.289 18.7712C71.6608 18.5011 72.0586 18.2854 72.4874 18.1224C72.9939 17.9298 73.5153 17.8217 74.058 17.8311C74.3867 17.8369 74.7174 17.8306 75.0435 17.865C75.4657 17.9094 75.8759 18.0168 76.2649 18.1973C76.6166 18.3604 76.9417 18.5589 77.1321 18.9097C77.4495 19.4945 77.3369 20.1703 76.6248 20.452C76.2007 20.6197 75.778 20.6123 75.4097 20.3314C75.0259 20.0388 74.8799 19.8842 75.0223 19.3596C75.0831 19.1355 75.01 18.8486 74.716 18.7301C74.3145 18.5682 73.9147 18.5721 73.5029 18.6438C72.9946 18.7322 72.6079 19.0029 72.3279 19.4303C72.1743 19.6647 72.1378 19.9176 72.1625 20.2024C72.2254 20.9249 72.7127 21.2354 73.3074 21.4596C73.4887 21.5279 73.6676 21.603 73.8501 21.6678C74.1773 21.784 74.5057 21.8967 74.8348 22.0072C75.5449 22.2455 76.2455 22.5031 76.8354 22.9867C77.276 23.348 77.5965 23.7983 77.7295 24.3528C77.837 24.8011 77.8273 25.2579 77.6951 25.7104C77.541 26.2382 77.2406 26.6563 76.838 27.0248C76.4681 27.3634 76.0508 27.6174 75.5988 27.8138C75.3595 27.9178 75.0994 27.9867 74.8417 28.0328C74.4271 28.107 74.0068 28.1493 73.7125 28.1886Z" fill="black"/>
<path d="M42.3698 22.7802C42.3698 21.7947 42.3691 20.8092 42.3709 19.8237C42.371 19.7282 42.3825 19.6324 42.3953 19.5376C42.4179 19.3702 42.3557 19.2937 42.1889 19.2936C41.8389 19.2933 41.4888 19.2893 41.1389 19.2957C40.999 19.2983 40.9408 19.2281 40.9414 19.1056C40.9422 18.9648 40.9434 18.82 40.9756 18.6844C41.0104 18.5379 41.1003 18.4388 41.2717 18.4034C41.4936 18.3575 41.7133 18.2854 41.9228 18.1978C42.2383 18.0657 42.325 17.7797 42.3365 17.4714C42.3558 16.9548 42.3594 16.4377 42.3699 15.9208C42.3734 15.7452 42.3961 15.5711 42.5561 15.4669C42.635 15.4155 42.7352 15.38 42.8289 15.3714C43.2662 15.331 43.7047 15.3038 44.1426 15.269C44.2913 15.2572 44.3264 15.3174 44.3258 15.465C44.3233 16.2005 44.336 16.936 44.3409 17.6716C44.3418 17.8085 44.3337 17.9456 44.326 18.0823C44.3155 18.2691 44.3615 18.3181 44.5461 18.315C44.9309 18.3086 45.3158 18.3033 45.7006 18.2983C45.9824 18.2947 46.2645 18.2857 46.5459 18.2957C46.5967 18.2975 46.6844 18.3771 46.6873 18.4248C46.7019 18.6677 46.6958 18.912 46.6937 19.1558C46.6926 19.2817 46.6069 19.2947 46.5055 19.2944C45.8562 19.2925 45.2069 19.2935 44.5576 19.2935C44.3324 19.2935 44.3309 19.2935 44.3306 19.516C44.3285 21.2024 44.3254 22.8888 44.3265 24.5752C44.3268 25.0266 44.3214 25.4795 44.3571 25.9286C44.3718 26.1128 44.4741 26.2964 44.5621 26.467C44.686 26.7074 44.905 26.8538 45.1461 26.9587C45.2491 27.0035 45.3664 27.0227 45.4792 27.036C45.903 27.0861 46.2982 26.9914 46.672 26.7895C46.7769 26.7328 46.8678 26.7077 46.9227 26.8754C46.9634 26.9999 47.0729 27.1004 47.1353 27.2202C47.1578 27.2634 47.154 27.3649 47.1257 27.3832C46.8842 27.5397 46.647 27.7136 46.3838 27.8225C46.0683 27.9531 45.7338 28.0553 45.3977 28.1127C45.1036 28.1629 44.7951 28.1511 44.4948 28.1344C44.2727 28.122 44.0527 28.0617 43.8332 28.0157C43.5513 27.9565 43.307 27.8102 43.106 27.6156C42.8962 27.4125 42.6579 27.2203 42.5704 26.92C42.5117 26.7184 42.4475 26.517 42.4107 26.3111C42.3788 26.133 42.3721 25.9488 42.3714 25.7672C42.368 24.7716 42.3698 23.7759 42.3698 22.7802Z" fill="black"/>
<path d="M38.7768 22.333C38.7768 23.6691 38.7767 25.0053 38.7768 26.3415C38.7768 26.7157 39.018 26.9898 39.3887 27.0374C39.6168 27.0667 39.8101 27.2788 39.8111 27.5093C39.813 27.9386 39.8461 27.8909 39.4446 27.891C38.2879 27.8915 37.1313 27.8883 35.9747 27.8948C35.8198 27.8957 35.7755 27.8407 35.7925 27.7006C35.8103 27.5536 35.7605 27.4018 35.858 27.26C35.947 27.1305 36.0503 27.0517 36.209 27.0359C36.5534 27.0015 36.8291 26.6891 36.8291 26.3426C36.8291 24.1225 36.8298 21.9023 36.8285 19.6822C36.8282 19.2955 36.6213 19.076 36.2486 19.0192C35.9761 18.9776 35.7947 18.7714 35.7941 18.4941C35.7932 18.1355 35.7934 18.1423 36.1531 18.1336C36.9126 18.1153 37.672 18.0929 38.4312 18.0646C38.7771 18.0516 38.7768 18.0434 38.7768 18.3855C38.7768 19.7013 38.7768 21.0171 38.7768 22.333Z" fill="black"/>
<path d="M13.0225 22.0674C13.0227 23.256 13.0208 24.4446 13.024 25.6331C13.0248 25.9221 13.0396 26.2112 13.0538 26.4999C13.0628 26.683 13.2896 26.8835 13.5168 26.9445C13.9257 27.0543 14.0503 27.0745 14.0804 27.5722C14.0974 27.8539 14.0895 27.8311 13.8499 27.8307C12.6377 27.8286 11.4255 27.8281 10.2133 27.8329C10.0809 27.8334 10.0248 27.7958 10.0384 27.6613C10.0479 27.5661 10.0399 27.4686 10.0548 27.3746C10.0952 27.1178 10.2997 27.0309 10.5074 26.9461C10.6578 26.8846 10.8239 26.8375 10.9454 26.7379C11.0236 26.6739 11.0662 26.5273 11.069 26.4163C11.0878 25.6911 11.0968 24.9655 11.0986 24.24C11.1021 22.7619 11.1005 21.2838 11.0965 19.8058C11.0961 19.6514 11.0865 19.4911 11.0442 19.3441C10.9672 19.0761 10.7212 18.9911 10.4896 18.9341C10.2485 18.8747 10.07 18.7253 10.0399 18.4801C10.0387 18.47 10.0398 18.4598 10.0394 18.4496C10.0229 18.0574 10.0359 18.0472 10.435 18.0433C11.2206 18.0355 12.0062 18.0243 12.7919 18.0138C13.0259 18.0107 13.023 18.0096 13.0228 18.2427C13.0218 19.5176 13.0223 20.7925 13.0225 22.0674Z" fill="black"/>
<path d="M36.1915 15.3423C36.1877 14.691 36.7766 14.123 37.4387 14.1101C38.1793 14.0956 38.7285 14.76 38.711 15.3541C38.6879 16.1349 38.1216 16.6266 37.4369 16.6312C36.8115 16.6353 36.1806 16.0187 36.1915 15.3423Z" fill="black"/>
<path d="M21.8868 20.1777H15.5508V22.0375H21.8868V20.1777Z" fill="black"/>
<path d="M79.7265 36.3362C80.9799 36.3362 81.996 35.3681 81.996 34.174C81.996 32.9798 80.9799 32.0117 79.7265 32.0117C78.4731 32.0117 77.457 32.9798 77.457 34.174C77.457 35.3681 78.4731 36.3362 79.7265 36.3362Z" fill="black"/>
</g>
<defs>
<clipPath id="clip0_1442_47530">
<rect width="78.1326" height="27.1329" fill="white" transform="translate(9.05078 11.8896)"/>
</clipPath>
</defs>
</svg>
