<svg width="265" height="79" viewBox="0 0 265 79" fill="none" xmlns="http://www.w3.org/2000/svg">
<rect x="1.17315" y="1.39386" width="262.846" height="76.5" rx="8.82692" fill="black"/>
<rect x="1.17315" y="1.39386" width="262.846" height="76.5" rx="8.82692" stroke="#A6A6A6" stroke-width="1.96154"/>
<path d="M133.844 43.0781C129.23 43.0781 125.47 46.5873 125.47 51.4206C125.47 56.2244 129.23 59.763 133.844 59.763C138.459 59.763 142.219 56.2244 142.219 51.4206C142.217 46.5873 138.457 43.0781 133.844 43.0781ZM133.844 56.4794C131.315 56.4794 129.136 54.3943 129.136 51.4225C129.136 48.4194 131.317 46.3657 133.844 46.3657C136.372 46.3657 138.551 48.4194 138.551 51.4225C138.551 54.3923 136.372 56.4794 133.844 56.4794ZM115.574 43.0781C110.96 43.0781 107.2 46.5873 107.2 51.4206C107.2 56.2244 110.96 59.763 115.574 59.763C120.189 59.763 123.95 56.2244 123.95 51.4206C123.95 46.5873 120.189 43.0781 115.574 43.0781ZM115.574 56.4794C113.045 56.4794 110.866 54.3943 110.866 51.4225C110.866 48.4194 113.047 46.3657 115.574 46.3657C118.102 46.3657 120.282 48.4194 120.282 51.4225C120.284 54.3923 118.102 56.4794 115.574 56.4794ZM93.844 45.6399V49.1785H102.314C102.061 51.1695 101.398 52.623 100.386 53.6332C99.1539 54.865 97.2257 56.2244 93.844 56.2244C88.6302 56.2244 84.5541 52.0208 84.5541 46.807C84.5541 41.5933 88.6302 37.3897 93.844 37.3897C96.6568 37.3897 98.7106 38.496 100.227 39.9181L102.724 37.4211C100.605 35.3987 97.7945 33.8511 93.844 33.8511C86.702 33.8511 80.6978 39.6651 80.6978 46.807C80.6978 53.949 86.702 59.763 93.844 59.763C97.6984 59.763 100.607 58.4978 102.881 56.1283C105.219 53.7901 105.947 50.5026 105.947 47.8486C105.947 47.0287 105.884 46.2696 105.756 45.638H93.844V45.6399ZM182.717 48.388C182.023 46.5246 179.905 43.0781 175.575 43.0781C171.278 43.0781 167.706 46.4598 167.706 51.4206C167.706 56.0969 171.246 59.763 175.985 59.763C179.808 59.763 182.021 57.4248 182.939 56.0655L180.095 54.1687C179.147 55.5594 177.851 56.4755 175.985 56.4755C174.122 56.4755 172.794 55.6222 171.941 53.947L183.096 49.3335L182.717 48.388ZM171.34 51.1695C171.246 47.9447 173.837 46.3029 175.703 46.3029C177.156 46.3029 178.388 47.0307 178.8 48.0722L171.34 51.1695ZM162.272 59.2589H165.936V34.7377H162.272V59.2589ZM156.266 44.9436H156.14C155.319 43.9628 153.738 43.0781 151.749 43.0781C147.576 43.0781 143.753 46.7443 143.753 51.4539C143.753 56.1302 147.576 59.765 151.749 59.765C153.74 59.765 155.319 58.8803 156.14 57.8701H156.266V59.0706C156.266 62.262 154.559 63.9685 151.811 63.9685C149.567 63.9685 148.177 62.3581 147.608 60.9988L144.416 62.3267C145.332 64.5374 147.765 67.2561 151.811 67.2561C156.109 67.2561 159.744 64.7276 159.744 58.5645V43.5862H156.268V44.9436H156.266ZM152.064 56.4794C149.536 56.4794 147.419 54.3609 147.419 51.4539C147.419 48.5136 149.536 46.3657 152.064 46.3657C154.559 46.3657 156.519 48.5136 156.519 51.4539C156.519 54.3609 154.559 56.4794 152.064 56.4794ZM199.889 34.7377H191.119V59.2589H194.777V49.969H199.887C203.943 49.969 207.933 47.0326 207.933 42.3543C207.933 37.6761 203.945 34.7377 199.889 34.7377ZM199.983 46.556H194.777V38.1508H199.983C202.719 38.1508 204.273 40.4163 204.273 42.3543C204.273 44.2531 202.719 46.556 199.983 46.556ZM222.603 43.035C219.953 43.035 217.209 44.2021 216.073 46.7894L219.322 48.1448C220.016 46.7894 221.311 46.3461 222.666 46.3461C224.559 46.3461 226.483 47.4818 226.515 49.5002V49.7533C225.852 49.3747 224.431 48.8078 222.697 48.8078C219.196 48.8078 215.63 50.7321 215.63 54.3276C215.63 57.6092 218.502 59.7218 221.719 59.7218C224.178 59.7218 225.536 58.6175 226.387 57.3228H226.513V59.2157H230.047V49.8141C230.049 45.4634 226.797 43.035 222.603 43.035ZM222.16 56.4735C220.963 56.4735 219.29 55.8733 219.29 54.3903C219.29 52.4975 221.373 51.7717 223.172 51.7717C224.779 51.7717 225.538 52.1189 226.515 52.5916C226.23 54.865 224.275 56.4735 222.16 56.4735ZM242.919 43.5705L238.723 54.202H238.598L234.243 43.5705H230.3L236.83 58.4291L233.107 66.6951H236.924L246.989 43.5705H242.919ZM209.953 59.2589H213.612V34.7377H209.953V59.2589Z" fill="white"/>
<path d="M93.2048 20.5054C93.2048 22.1491 92.7184 23.4575 91.7435 24.4343C90.6372 25.5956 89.1935 26.1762 87.4203 26.1762C85.7216 26.1762 84.2759 25.5877 83.0892 24.4108C81.9005 23.2319 81.3062 21.7725 81.3062 20.0307C81.3062 18.2869 81.9005 16.8275 83.0892 15.6506C84.2759 14.4717 85.7216 13.8832 87.4203 13.8832C88.2637 13.8832 89.0699 14.048 89.8349 14.3756C90.6019 14.7051 91.2158 15.1425 91.6748 15.6898L90.6411 16.7255C89.8624 15.7938 88.7894 15.3289 87.4183 15.3289C86.1786 15.3289 85.1076 15.7643 84.2033 16.6353C83.2991 17.5062 82.8479 18.638 82.8479 20.0287C82.8479 21.4195 83.2991 22.5513 84.2033 23.4222C85.1076 24.2931 86.1786 24.7286 87.4183 24.7286C88.7325 24.7286 89.829 24.2911 90.7058 23.4143C91.2747 22.8435 91.6042 22.0491 91.6925 21.0311H87.4183V19.6168H93.1205C93.1793 19.9248 93.2048 20.221 93.2048 20.5054Z" fill="white"/>
<path d="M102.248 15.5899H96.8888V19.3207H101.722V20.735H96.8888V24.4658H102.248V25.9134H95.3765V14.1442H102.248V15.5899Z" fill="white"/>
<path d="M108.624 25.9134H107.112V15.5899H103.825V14.1442H111.912V15.5899H108.624V25.9134Z" fill="white"/>
<path d="M117.763 25.9134V14.1442H119.276V25.9134H117.763Z" fill="white"/>
<path d="M125.982 25.9134H124.47V15.5899H121.182V14.1442H129.27V15.5899H125.982V25.9134Z" fill="white"/>
<path d="M144.579 24.3932C143.422 25.5819 141.984 26.1763 140.264 26.1763C138.544 26.1763 137.106 25.5819 135.95 24.3932C134.793 23.2045 134.216 21.7491 134.216 20.0288C134.216 18.3085 134.793 16.8531 135.95 15.6644C137.106 14.4757 138.544 13.8794 140.264 13.8794C141.974 13.8794 143.41 14.4777 144.571 15.6722C145.733 16.8668 146.313 18.3184 146.313 20.0288C146.313 21.7491 145.735 23.2045 144.579 24.3932ZM137.067 23.4066C137.937 24.2893 139.003 24.7287 140.264 24.7287C141.525 24.7287 142.592 24.2873 143.461 23.4066C144.332 22.5239 144.77 21.398 144.77 20.0288C144.77 18.6597 144.332 17.5337 143.461 16.651C142.592 15.7684 141.525 15.329 140.264 15.329C139.003 15.329 137.937 15.7703 137.067 16.651C136.198 17.5337 135.76 18.6597 135.76 20.0288C135.76 21.398 136.198 22.5239 137.067 23.4066Z" fill="white"/>
<path d="M148.436 25.9134V14.1442H150.276L155.995 23.2987H156.06L155.995 21.0312V14.1442H157.508V25.9134H155.929L149.944 16.3137H149.879L149.944 18.5812V25.9134H148.436Z" fill="white"/>
<path d="M93.2048 20.5054C93.2048 22.1491 92.7184 23.4575 91.7435 24.4343C90.6372 25.5956 89.1935 26.1762 87.4203 26.1762C85.7216 26.1762 84.2759 25.5877 83.0892 24.4108C81.9005 23.2319 81.3062 21.7725 81.3062 20.0307C81.3062 18.2869 81.9005 16.8275 83.0892 15.6506C84.2759 14.4717 85.7216 13.8832 87.4203 13.8832C88.2637 13.8832 89.0699 14.048 89.8349 14.3756C90.6019 14.7051 91.2158 15.1425 91.6748 15.6898L90.6411 16.7255C89.8624 15.7938 88.7894 15.3289 87.4183 15.3289C86.1786 15.3289 85.1076 15.7643 84.2033 16.6353C83.2991 17.5062 82.8479 18.638 82.8479 20.0287C82.8479 21.4195 83.2991 22.5513 84.2033 23.4222C85.1076 24.2931 86.1786 24.7286 87.4183 24.7286C88.7325 24.7286 89.829 24.2911 90.7058 23.4143C91.2747 22.8435 91.6042 22.0491 91.6925 21.0311H87.4183V19.6168H93.1205C93.1793 19.9248 93.2048 20.221 93.2048 20.5054Z" stroke="white" stroke-width="0.392308" stroke-miterlimit="10"/>
<path d="M102.248 15.5899H96.8888V19.3207H101.722V20.735H96.8888V24.4658H102.248V25.9134H95.3765V14.1442H102.248V15.5899Z" stroke="white" stroke-width="0.392308" stroke-miterlimit="10"/>
<path d="M108.624 25.9134H107.112V15.5899H103.825V14.1442H111.912V15.5899H108.624V25.9134Z" stroke="white" stroke-width="0.392308" stroke-miterlimit="10"/>
<path d="M117.763 25.9134V14.1442H119.276V25.9134H117.763Z" stroke="white" stroke-width="0.392308" stroke-miterlimit="10"/>
<path d="M125.982 25.9134H124.47V15.5899H121.182V14.1442H129.27V15.5899H125.982V25.9134Z" stroke="white" stroke-width="0.392308" stroke-miterlimit="10"/>
<path d="M144.579 24.3932C143.422 25.5819 141.984 26.1763 140.264 26.1763C138.544 26.1763 137.106 25.5819 135.95 24.3932C134.793 23.2045 134.216 21.7491 134.216 20.0288C134.216 18.3085 134.793 16.8531 135.95 15.6644C137.106 14.4757 138.544 13.8794 140.264 13.8794C141.974 13.8794 143.41 14.4777 144.571 15.6722C145.733 16.8668 146.313 18.3184 146.313 20.0288C146.313 21.7491 145.735 23.2045 144.579 24.3932ZM137.067 23.4066C137.937 24.2893 139.003 24.7287 140.264 24.7287C141.525 24.7287 142.592 24.2873 143.461 23.4066C144.332 22.5239 144.77 21.398 144.77 20.0288C144.77 18.6597 144.332 17.5337 143.461 16.651C142.592 15.7684 141.525 15.329 140.264 15.329C139.003 15.329 137.937 15.7703 137.067 16.651C136.198 17.5337 135.76 18.6597 135.76 20.0288C135.76 21.398 136.198 22.5239 137.067 23.4066Z" stroke="white" stroke-width="0.392308" stroke-miterlimit="10"/>
<path d="M148.436 25.9134V14.1442H150.276L155.995 23.2987H156.06L155.995 21.0312V14.1442H157.508V25.9134H155.929L149.944 16.3137H149.879L149.944 18.5812V25.9134H148.436Z" stroke="white" stroke-width="0.392308" stroke-miterlimit="10"/>
<g filter="url(#filter0_ii_192_3079)">
<path d="M20.6631 15.1998C20.0923 15.804 19.7549 16.7416 19.7549 17.9558V61.3372C19.7549 62.5533 20.0923 63.489 20.6631 64.0931L20.8082 64.2344L45.1097 39.9329V39.6465V39.3601L20.8082 15.0566L20.6631 15.1998Z" fill="url(#paint0_linear_192_3079)"/>
<path d="M53.2086 48.0353L45.1094 39.9322V39.6458V39.3595L53.2105 31.2583L53.393 31.3623L62.9908 36.8153C65.731 38.3728 65.731 40.9208 62.9908 42.4803L53.393 47.9333L53.2086 48.0353Z" fill="url(#paint1_linear_192_3079)"/>
<g filter="url(#filter1_i_192_3079)">
<path d="M53.3933 47.9315L45.1078 39.646L20.6631 64.0926C21.5654 65.0499 23.0581 65.1676 24.7392 64.2143L53.3933 47.9315Z" fill="url(#paint2_linear_192_3079)"/>
</g>
<path d="M53.3933 31.3604L24.7392 15.0796C23.0581 14.1244 21.5654 14.244 20.6631 15.2013L45.1097 39.6479L53.3933 31.3604Z" fill="url(#paint3_linear_192_3079)"/>
</g>
<defs>
<filter id="filter0_ii_192_3079" x="19.7549" y="14.4204" width="45.291" height="50.4521" filterUnits="userSpaceOnUse" color-interpolation-filters="sRGB">
<feFlood flood-opacity="0" result="BackgroundImageFix"/>
<feBlend mode="normal" in="SourceGraphic" in2="BackgroundImageFix" result="shape"/>
<feColorMatrix in="SourceAlpha" type="matrix" values="0 0 0 0 0 0 0 0 0 0 0 0 0 0 0 0 0 0 127 0" result="hardAlpha"/>
<feOffset dy="-0.294231"/>
<feComposite in2="hardAlpha" operator="arithmetic" k2="-1" k3="1"/>
<feColorMatrix type="matrix" values="0 0 0 0 0 0 0 0 0 0 0 0 0 0 0 0 0 0 0.12 0"/>
<feBlend mode="normal" in2="shape" result="effect1_innerShadow_192_3079"/>
<feColorMatrix in="SourceAlpha" type="matrix" values="0 0 0 0 0 0 0 0 0 0 0 0 0 0 0 0 0 0 127 0" result="hardAlpha"/>
<feOffset dy="0.294231"/>
<feComposite in2="hardAlpha" operator="arithmetic" k2="-1" k3="1"/>
<feColorMatrix type="matrix" values="0 0 0 0 1 0 0 0 0 1 0 0 0 0 1 0 0 0 0.25 0"/>
<feBlend mode="normal" in2="effect1_innerShadow_192_3079" result="effect2_innerShadow_192_3079"/>
</filter>
<filter id="filter1_i_192_3079" x="20.6631" y="39.646" width="32.7305" height="25.2266" filterUnits="userSpaceOnUse" color-interpolation-filters="sRGB">
<feFlood flood-opacity="0" result="BackgroundImageFix"/>
<feBlend mode="normal" in="SourceGraphic" in2="BackgroundImageFix" result="shape"/>
<feColorMatrix in="SourceAlpha" type="matrix" values="0 0 0 0 0 0 0 0 0 0 0 0 0 0 0 0 0 0 127 0" result="hardAlpha"/>
<feOffset dy="-0.294231"/>
<feComposite in2="hardAlpha" operator="arithmetic" k2="-1" k3="1"/>
<feColorMatrix type="matrix" values="0 0 0 0 0 0 0 0 0 0 0 0 0 0 0 0 0 0 0.08 0"/>
<feBlend mode="normal" in2="shape" result="effect1_innerShadow_192_3079"/>
</filter>
<linearGradient id="paint0_linear_192_3079" x1="42.9556" y1="17.4968" x2="10.037" y2="50.4153" gradientUnits="userSpaceOnUse">
<stop stop-color="#00A0FF"/>
<stop offset="0.0066" stop-color="#00A1FF"/>
<stop offset="0.2601" stop-color="#00BEFF"/>
<stop offset="0.5122" stop-color="#00D2FF"/>
<stop offset="0.7604" stop-color="#00DFFF"/>
<stop offset="1" stop-color="#00E3FF"/>
</linearGradient>
<linearGradient id="paint1_linear_192_3079" x1="66.5578" y1="39.6458" x2="19.0966" y2="39.6458" gradientUnits="userSpaceOnUse">
<stop stop-color="#FFE000"/>
<stop offset="0.4087" stop-color="#FFBD00"/>
<stop offset="0.7754" stop-color="#FFA500"/>
<stop offset="1" stop-color="#FF9C00"/>
</linearGradient>
<linearGradient id="paint2_linear_192_3079" x1="48.8937" y1="44.1456" x2="4.25208" y2="88.7872" gradientUnits="userSpaceOnUse">
<stop stop-color="#FF3A44"/>
<stop offset="1" stop-color="#C31162"/>
</linearGradient>
<linearGradient id="paint3_linear_192_3079" x1="14.5066" y1="0.760014" x2="34.4403" y2="20.6938" gradientUnits="userSpaceOnUse">
<stop stop-color="#32A071"/>
<stop offset="0.0685" stop-color="#2DA771"/>
<stop offset="0.4762" stop-color="#15CF74"/>
<stop offset="0.8009" stop-color="#06E775"/>
<stop offset="1" stop-color="#00F076"/>
</linearGradient>
</defs>
</svg>
