<svg width="935" height="904" viewBox="0 0 935 904" fill="none" xmlns="http://www.w3.org/2000/svg">
<g clip-path="url(#clip0_192_3391)">
<rect width="1440" height="904" transform="translate(-505)" fill="#ECE4D4"/>
<path d="M570.072 30.0365C288.081 152.681 445.665 213.065 52.5361 264.073C-340.592 315.081 -465 159.291 -465 30.0365C-465 -99.2183 -233.291 -204 52.5361 -204C338.363 -204 852.063 -92.6077 570.072 30.0365Z" fill="#0D0D0D" fill-opacity="0.15"/>
<path d="M56.7822 296.799C254.735 271.114 321.428 242.359 373.874 199.462C383.796 191.347 393.193 182.738 402.258 174.434C404.28 172.582 406.284 170.746 408.275 168.933C419.459 158.748 431.161 148.397 445.562 137.394C474.151 115.549 514.79 90.0661 583.234 60.2982C620.006 44.3049 648.481 26.6564 665.818 5.95782C674.821 -4.79073 681.622 -17.3208 684.049 -31.5575C686.526 -46.0832 684.025 -59.9435 678.251 -72.2704C667.443 -95.3432 645.367 -112.858 622.293 -126.381C598.237 -140.48 568.107 -153.08 534.717 -164.264C401.813 -208.783 198.292 -237 52.5361 -237C-93.9585 -237 -228.18 -210.215 -327.015 -165.521C-422.809 -122.201 -498 -55.5793 -498 30.0365C-498 105.962 -461.077 188.028 -370.784 242.86C-281.687 296.965 -143.761 322.819 56.7822 296.799Z" stroke="#0D0D0D" stroke-opacity="0.06" stroke-width="66"/>
</g>
<defs>
<clipPath id="clip0_192_3391">
<rect width="1440" height="904" fill="white" transform="translate(-505)"/>
</clipPath>
</defs>
</svg>
