<svg width="209" height="157" viewBox="0 0 209 157" fill="none" xmlns="http://www.w3.org/2000/svg">
<rect x="53.3398" y="52.7685" width="138.658" height="61.0664" rx="4.52344" fill="#F15046"/>
<rect x="64.2969" y="0.372009" width="144.703" height="102.908" rx="7.53906" fill="#FAF0E4"/>
<rect x="79.1348" y="32.925" width="114.614" height="37.3004" rx="2.03457" fill="white"/>
<g clip-path="url(#clip0_192_3930)">
<path d="M93.1391 41.8597C94.7293 41.8597 96.0184 40.6315 96.0184 39.1164C96.0184 37.6014 94.7293 36.3732 93.1391 36.3732C91.5489 36.3732 90.2598 37.6014 90.2598 39.1164C90.2598 40.6315 91.5489 41.8597 93.1391 41.8597Z" fill="#F60C01"/>
<path d="M163.152 63.0308C162.901 63.0671 162.676 63.0855 162.503 63.0874C160.979 63.1044 159.428 62.8303 157.906 62.7285C154.177 62.4791 150.458 62.1146 146.725 61.9164C143.241 61.7313 139.747 61.639 136.258 61.7161C132.824 61.792 129.384 61.9118 125.956 62.1389C122.573 62.3631 119.178 62.608 115.815 63.0421C112.644 63.4514 109.51 64.0813 106.398 64.8131C106.076 64.889 105.738 64.919 105.423 65.0242C105.016 65.1599 104.431 65.2631 104.16 65.6064C103.859 65.9873 103.812 66.3995 103.352 66.6611C102.854 66.9445 102.182 67.0323 101.627 67.151C100.415 67.4108 99.1372 67.4479 97.9031 67.3616C95.9912 67.228 92.4129 66.1859 94.1212 63.66C94.1312 63.6453 94.1452 63.6305 94.1607 63.6226C94.4667 63.4684 94.7748 63.3184 95.0785 63.1599C95.1675 63.1135 95.2383 63.0314 95.3281 62.987C96.3856 62.464 97.4736 62.1924 98.5871 61.8225C99.5007 61.519 100.417 61.2246 101.339 60.9465C103.244 60.3718 105.169 59.8696 107.115 59.455C111.255 58.5727 115.467 58.079 119.686 57.7732C123.985 57.4615 128.297 57.3334 132.607 57.3C136.954 57.2664 141.304 57.336 145.645 57.5728C149.938 57.8069 154.214 58.2371 158.484 58.7354C159.97 58.909 161.376 59.1281 162.833 59.492C163.681 59.7038 164.683 59.9695 165.301 60.634C166.667 62.1014 164.524 62.8324 163.152 63.0308Z" fill="#F60C01"/>
<path d="M110.094 46.2601C110.094 44.0447 110.097 41.8292 110.089 39.6138C110.088 39.407 110.042 39.1935 109.978 38.9955C109.895 38.7371 109.632 38.7115 109.419 38.6257C109.202 38.5385 108.923 38.5403 108.822 38.2769C108.759 38.1123 108.739 37.9295 108.717 37.7527C108.713 37.7217 108.791 37.6662 108.84 37.6469C108.888 37.6284 108.948 37.6421 109.003 37.6421C111.926 37.642 114.85 37.6528 117.773 37.6346C118.536 37.6298 119.304 37.5789 120.057 37.4199C120.119 37.4069 120.172 37.3591 120.233 37.3353C120.399 37.2697 120.473 37.3345 120.472 37.5125C120.468 38.472 120.472 39.4316 120.469 40.3911C120.468 40.7498 120.462 41.1088 120.443 41.4669C120.44 41.5183 120.355 41.6063 120.306 41.6074C120.062 41.6129 119.813 41.6167 119.573 41.577C119.444 41.5557 119.276 41.4751 119.219 41.3704C119.068 41.0893 118.968 40.7806 118.846 40.4833C118.723 40.181 118.621 39.8667 118.467 39.5809C118.324 39.3153 118.105 39.0917 117.809 38.993C117.557 38.9085 117.29 38.8234 117.028 38.8178C115.686 38.7889 114.344 38.7851 113.003 38.7739C112.645 38.771 112.645 38.7733 112.645 39.1351C112.645 41.0949 112.647 43.0548 112.642 45.0146C112.641 45.1859 112.681 45.2461 112.862 45.2422C113.427 45.2301 113.993 45.2505 114.558 45.2319C114.964 45.2185 115.376 45.1926 115.761 45.0457C115.999 44.9554 116.138 44.7494 116.253 44.5323C116.362 44.3258 116.456 44.1112 116.569 43.907C116.66 43.7414 116.81 43.6655 117.003 43.6649C117.178 43.6643 117.353 43.6428 117.528 43.6378C117.66 43.6341 117.719 43.6993 117.719 43.8389C117.723 44.9645 117.732 46.09 117.738 47.2156C117.739 47.4583 117.745 47.7021 117.726 47.9436C117.711 48.1242 117.619 48.1723 117.443 48.1536C117.337 48.1424 117.228 48.145 117.122 48.1573C116.874 48.186 116.578 47.9878 116.474 47.7417C116.349 47.4446 116.232 47.1377 116.058 46.8691C115.889 46.6071 115.589 46.469 115.289 46.4512C114.467 46.4024 113.643 46.3974 112.82 46.3678C112.659 46.362 112.644 46.4406 112.644 46.5683C112.646 47.9621 112.645 49.3558 112.645 50.7496C112.645 51.4739 112.636 52.1984 112.652 52.9224C112.656 53.1146 112.728 53.3072 112.784 53.4953C112.8 53.5505 112.859 53.612 112.913 53.6339C113.145 53.7279 113.387 53.797 113.616 53.8986C113.721 53.9455 113.847 54.029 113.885 54.1265C113.945 54.2841 113.953 54.4666 113.958 54.6392C113.962 54.7673 113.857 54.8053 113.742 54.8055C113.511 54.8059 113.28 54.8057 113.05 54.8057C111.7 54.8056 110.351 54.8055 109.002 54.8051C108.756 54.805 108.73 54.7818 108.744 54.5292C108.75 54.4058 108.765 54.2788 108.803 54.1619C108.898 53.8652 109.194 53.8528 109.421 53.797C109.998 53.6554 110.063 53.4413 110.083 52.9426C110.118 52.0919 110.094 51.2387 110.094 50.3866C110.094 49.0111 110.094 47.6356 110.094 46.2601Z" fill="black"/>
<path d="M139.374 44.2047C139.476 44.1361 139.579 44.0779 139.67 44.0047C140.123 43.6409 140.615 43.3395 141.16 43.1432C141.686 42.9537 142.232 42.8552 142.795 42.8164C143.338 42.779 143.873 42.8163 144.399 42.9084C145.257 43.0584 146.008 43.4348 146.521 44.1708C146.705 44.4365 146.869 44.7341 146.962 45.0416C147.044 45.3126 147.028 45.6177 147.029 45.9077C147.033 48.1717 147.029 50.4358 147.035 52.6998C147.035 52.9149 147.07 53.133 147.117 53.3434C147.136 53.4259 147.218 53.5113 147.294 53.5603C147.485 53.6834 147.684 53.7888 147.927 53.788C148.115 53.7874 148.298 54.0291 148.304 54.2974C148.317 54.8655 148.342 54.8067 147.855 54.8064C146.433 54.8055 145.011 54.8063 143.589 54.8063C143.342 54.8063 143.311 54.7768 143.314 54.5198C143.316 54.3424 143.259 54.14 143.424 54.0096C143.544 53.9143 143.69 53.8077 143.833 53.7937C144.145 53.7631 144.411 53.6618 144.599 53.4158C144.667 53.3254 144.693 53.1816 144.693 53.0619C144.699 51.0049 144.7 48.9478 144.697 46.8907C144.696 46.4841 144.712 46.0719 144.653 45.6723C144.563 45.0659 144.288 44.5648 143.694 44.2847C143.189 44.0464 142.664 43.9132 142.11 43.9663C141.812 43.9948 141.524 44.1083 141.227 44.1628C140.88 44.2266 140.594 44.4153 140.32 44.6102C140.053 44.801 139.822 45.0444 139.582 45.2727C139.542 45.3113 139.522 45.3902 139.522 45.4505C139.519 47.9884 139.519 50.5263 139.522 53.0642C139.522 53.2904 139.656 53.6067 139.958 53.6776C140.158 53.7248 140.354 53.7947 140.553 53.8486C140.78 53.9099 140.822 54.1043 140.829 54.2838C140.852 54.8932 140.858 54.8053 140.36 54.8057C138.969 54.8066 137.577 54.806 136.185 54.8059C135.967 54.8059 135.946 54.7844 135.946 54.5644C135.946 54.4792 135.943 54.394 135.944 54.3088C135.946 54.022 136.12 53.8612 136.4 53.7743C136.634 53.7018 136.881 53.591 137.052 53.4247C137.163 53.3171 137.181 53.0789 137.181 52.899C137.19 50.8967 137.187 48.8944 137.187 46.8921C137.187 46.253 137.193 45.6139 137.183 44.975C137.18 44.7595 137.148 44.5297 136.961 44.3889C136.835 44.2946 136.676 44.2447 136.53 44.1789C136.394 44.1177 136.248 44.0751 136.121 44.0002C135.963 43.9071 135.941 43.7455 135.943 43.5713C135.949 43.1229 135.945 43.125 136.394 43.1169C136.91 43.1077 137.426 43.1001 137.942 43.0808C138.316 43.0667 138.69 43.0371 139.063 43.01C139.29 42.9935 139.372 43.0643 139.374 43.2955C139.375 43.5845 139.374 43.8735 139.374 44.2047Z" fill="black"/>
<path d="M157.178 48.6032C156.017 48.6032 154.857 48.6034 153.696 48.6031C153.393 48.603 153.09 48.6023 152.787 48.6C152.65 48.599 152.573 48.6299 152.566 48.8011C152.548 49.2616 152.543 49.7206 152.652 50.1699C152.764 50.628 152.854 51.099 153.033 51.5313C153.28 52.1277 153.651 52.6544 154.148 53.0854C154.518 53.4056 154.938 53.6156 155.389 53.7943C155.791 53.9536 156.207 54.0363 156.627 54.0615C156.964 54.0817 157.31 54.0192 157.647 53.9619C158.088 53.8869 158.488 53.6948 158.867 53.4602C159.387 53.1392 159.804 52.7057 160.194 52.2444C160.374 52.0315 160.419 52.0169 160.628 52.188C160.773 52.306 160.918 52.4274 161.078 52.5202C161.21 52.5962 161.206 52.6703 161.123 52.7632C160.862 53.0562 160.606 53.3535 160.332 53.6339C159.899 54.0761 159.406 54.4429 158.849 54.7102C158.605 54.827 158.332 54.8852 158.07 54.9581C157.779 55.0388 157.487 55.1481 157.19 55.1694C156.665 55.2069 156.134 55.2193 155.61 55.1814C155.183 55.1505 154.761 55.0416 154.342 54.9456C154.134 54.8981 153.925 54.8252 153.739 54.7229C153.304 54.4838 152.863 54.2479 152.461 53.959C151.964 53.6014 151.535 53.1576 151.184 52.6546C150.816 52.1294 150.526 51.5649 150.336 50.942C150.122 50.2358 150.008 49.5189 150.033 48.7888C150.049 48.2983 150.138 47.8074 150.229 47.3232C150.293 46.9854 150.384 46.646 150.516 46.3296C150.822 45.5937 151.256 44.9395 151.835 44.3812C152.292 43.9411 152.801 43.5918 153.379 43.3323C153.946 43.0775 154.527 42.8945 155.152 42.8614C155.374 42.8497 155.597 42.7804 155.815 42.7983C156.324 42.8403 156.83 42.9176 157.337 42.9837C157.797 43.0437 158.202 43.2671 158.587 43.4941C159.24 43.8789 159.752 44.4223 160.16 45.0688C160.439 45.5105 160.634 45.9862 160.785 46.4783C160.879 46.7854 160.916 47.112 160.959 47.4325C161 47.7367 161.022 48.0439 161.038 48.3506C161.052 48.5951 161.042 48.598 160.805 48.5981C159.596 48.5986 158.387 48.5983 157.178 48.5983C157.178 48.5999 157.178 48.6016 157.178 48.6032ZM155.803 47.4404C155.803 47.4408 155.803 47.4411 155.803 47.4414C156.617 47.4414 157.43 47.4388 158.243 47.4438C158.392 47.4447 158.441 47.3836 158.427 47.2465C158.385 46.8301 158.381 46.4058 158.295 45.9989C158.117 45.1558 157.686 44.4979 156.839 44.1668C156.16 43.9012 155.477 43.882 154.794 44.0995C154.519 44.1872 154.247 44.3314 154.017 44.5079C153.552 44.8665 153.217 45.3455 153.027 45.8991C152.875 46.3435 152.79 46.8114 152.68 47.27C152.65 47.3926 152.706 47.451 152.836 47.4466C153.029 47.4401 153.223 47.4408 153.417 47.4407C154.212 47.4401 155.008 47.4404 155.803 47.4404Z" fill="black"/>
<path d="M178.292 55.1485C177.832 55.119 177.371 55.1309 176.927 55.0501C176.425 54.9587 175.935 54.791 175.444 54.6437C175.04 54.5225 174.685 54.3035 174.349 54.0497C173.871 53.69 173.577 52.9857 173.723 52.4918C173.847 52.0711 174.148 51.8159 174.525 51.6199C174.861 51.4454 175.228 51.4654 175.551 51.5401C175.979 51.6387 176.359 51.8943 176.536 52.338C176.581 52.4522 176.564 52.5991 176.548 52.7276C176.533 52.8444 176.477 52.9553 176.447 53.0709C176.344 53.4668 176.55 53.859 176.929 54.0032C177.579 54.2498 178.239 54.2817 178.917 54.1367C179.501 54.0118 180.016 53.7759 180.447 53.352C180.722 53.083 180.837 52.7432 180.898 52.393C180.984 51.901 180.902 51.4139 180.539 51.0477C180.297 50.8037 179.997 50.6104 179.702 50.428C179.481 50.2912 179.231 50.1962 178.986 50.1038C178.741 50.0113 178.484 49.9489 178.235 49.8665C177.895 49.7541 177.561 49.6251 177.219 49.5214C176.689 49.3609 176.19 49.1393 175.726 48.8356C175.125 48.4424 174.657 47.9366 174.408 47.256C174.331 47.0456 174.297 46.8145 174.275 46.5898C174.237 46.1845 174.267 45.777 174.388 45.389C174.5 45.028 174.691 44.6977 174.938 44.4103C175.254 44.0422 175.627 43.7354 176.057 43.5085C176.326 43.3666 176.599 43.2255 176.885 43.1246C177.253 42.9945 177.633 42.8977 178.012 42.8016C178.157 42.7648 178.312 42.7559 178.463 42.7575C178.978 42.763 179.497 42.746 180.008 42.7986C180.709 42.8708 181.381 43.0761 181.973 43.4769C182.318 43.7103 182.521 44.0397 182.634 44.4553C182.732 44.8165 182.682 45.1336 182.497 45.4197C182.26 45.7871 181.891 45.9731 181.451 46.0037C181.049 46.0316 180.686 45.9604 180.35 45.6993C179.98 45.4124 179.866 45.0673 179.933 44.622C179.958 44.4527 179.955 44.2674 179.911 44.1038C179.885 44.0052 179.769 43.9014 179.669 43.857C179.259 43.6758 178.829 43.6448 178.381 43.6882C177.986 43.7265 177.638 43.8623 177.32 44.0761C176.818 44.4137 176.471 44.8742 176.505 45.5016C176.533 46.0056 176.748 46.4398 177.199 46.7387C177.664 47.0477 178.183 47.2258 178.699 47.4145C179.236 47.6113 179.778 47.7971 180.323 47.971C180.856 48.1408 181.356 48.3787 181.815 48.6914C182.42 49.1031 182.886 49.6293 183.142 50.338C183.323 50.8364 183.326 51.3495 183.258 51.8423C183.184 52.386 182.939 52.8954 182.577 53.3296C182.057 53.9536 181.407 54.4076 180.663 54.7057C180.103 54.9299 179.516 55.0886 178.901 55.0996C178.696 55.1033 178.491 55.1318 178.292 55.1485Z" fill="black"/>
<path d="M167.437 55.1623C166.842 55.1212 166.395 55.1296 165.963 55.0512C165.371 54.9436 164.783 54.8064 164.228 54.5478C163.882 54.3862 163.557 54.2025 163.284 53.9349C162.986 53.6417 162.769 53.2914 162.725 52.8737C162.68 52.4543 162.893 52.1367 163.196 51.8495C163.606 51.4605 164.106 51.4487 164.583 51.5391C164.992 51.6165 165.373 51.8695 165.552 52.2796C165.622 52.44 165.599 52.6778 165.538 52.8523C165.357 53.3713 165.443 53.7884 166.037 54.0152C166.512 54.1969 166.994 54.2576 167.484 54.2149C168.16 54.156 168.808 53.9682 169.328 53.5042C169.827 53.0593 170.061 52.4827 169.958 51.8161C169.893 51.3947 169.65 51.0484 169.314 50.7781C168.93 50.4691 168.479 50.2845 168.027 50.1075C167.679 49.9713 167.321 49.8619 166.966 49.7446C166.611 49.6275 166.251 49.5277 165.901 49.3988C165.098 49.1033 164.376 48.6808 163.843 47.9925C163.377 47.3909 163.203 46.6863 163.307 45.9492C163.426 45.1058 163.826 44.3962 164.534 43.8818C164.98 43.5583 165.456 43.2999 165.97 43.1046C166.576 42.8739 167.201 42.7444 167.851 42.7558C168.245 42.7626 168.641 42.7552 169.031 42.7963C169.537 42.8495 170.028 42.9781 170.494 43.1943C170.916 43.3898 171.305 43.6275 171.533 44.0477C171.913 44.7482 171.779 45.5576 170.926 45.8951C170.418 46.096 169.911 46.0871 169.47 45.7507C169.01 45.4002 168.835 45.215 169.006 44.5865C169.079 44.3182 168.991 43.9745 168.639 43.8326C168.158 43.6387 167.679 43.6433 167.186 43.7291C166.577 43.8351 166.114 44.1593 165.779 44.6712C165.595 44.9521 165.551 45.255 165.58 45.5961C165.656 46.4616 166.24 46.8335 166.952 47.102C167.169 47.1839 167.383 47.2739 167.602 47.3515C167.994 47.4906 168.387 47.6256 168.781 47.7579C169.632 48.0434 170.471 48.352 171.178 48.9313C171.706 49.364 172.09 49.9034 172.249 50.5676C172.378 51.1046 172.366 51.6518 172.208 52.1938C172.023 52.8261 171.663 53.3268 171.181 53.7682C170.738 54.1738 170.238 54.478 169.697 54.7133C169.41 54.8379 169.098 54.9204 168.79 54.9757C168.293 55.0645 167.79 55.1152 167.437 55.1623Z" fill="black"/>
<path d="M129.895 48.6836C129.895 47.5031 129.894 46.3226 129.896 45.1421C129.896 45.0278 129.91 44.913 129.925 44.7995C129.952 44.5989 129.878 44.5073 129.678 44.5072C129.259 44.5069 128.839 44.5021 128.42 44.5097C128.253 44.5128 128.183 44.4288 128.184 44.282C128.184 44.1133 128.186 43.9399 128.225 43.7775C128.266 43.602 128.374 43.4833 128.579 43.4409C128.845 43.386 129.108 43.2996 129.359 43.1946C129.737 43.0364 129.841 42.6938 129.855 42.3245C129.878 41.7057 129.882 41.0863 129.895 40.4671C129.899 40.2568 129.926 40.0483 130.118 39.9234C130.212 39.8619 130.332 39.8194 130.444 39.809C130.968 39.7607 131.494 39.7281 132.018 39.6864C132.196 39.6723 132.238 39.7444 132.238 39.9211C132.235 40.8022 132.25 41.6832 132.256 42.5643C132.257 42.7283 132.247 42.8925 132.238 43.0563C132.225 43.28 132.28 43.3387 132.501 43.335C132.962 43.3273 133.423 43.3209 133.884 43.315C134.222 43.3107 134.56 43.2999 134.897 43.3118C134.958 43.314 135.063 43.4094 135.066 43.4666C135.084 43.7575 135.076 44.0501 135.074 44.3421C135.073 44.493 134.97 44.5085 134.848 44.5082C134.071 44.5059 133.293 44.507 132.515 44.507C132.245 44.507 132.244 44.5071 132.243 44.7736C132.241 46.7936 132.237 48.8137 132.238 50.8337C132.239 51.3744 132.232 51.9168 132.275 52.4548C132.293 52.6755 132.415 52.8954 132.521 53.0998C132.669 53.3877 132.931 53.563 133.22 53.6887C133.343 53.7424 133.484 53.7654 133.619 53.7814C134.127 53.8414 134.6 53.728 135.048 53.486C135.174 53.4181 135.282 53.388 135.348 53.5889C135.397 53.7381 135.528 53.8585 135.603 54.002C135.63 54.0537 135.625 54.1753 135.591 54.1972C135.302 54.3846 135.018 54.593 134.703 54.7234C134.325 54.8798 133.924 55.0023 133.522 55.071C133.169 55.1312 132.8 55.117 132.44 55.097C132.174 55.0822 131.91 55.01 131.648 54.9548C131.31 54.8839 131.017 54.7087 130.776 54.4756C130.525 54.2323 130.24 54.0021 130.135 53.6424C130.065 53.4009 129.988 53.1597 129.944 52.913C129.905 52.6997 129.897 52.479 129.897 52.2615C129.892 51.0689 129.895 49.8763 129.895 48.6836Z" fill="black"/>
<path d="M125.591 48.1483C125.591 49.7488 125.59 51.3493 125.591 52.9498C125.591 53.3981 125.879 53.7264 126.324 53.7835C126.597 53.8186 126.828 54.0726 126.829 54.3488C126.832 54.8629 126.871 54.8058 126.39 54.806C125.005 54.8065 123.619 54.8027 122.234 54.8105C122.049 54.8116 121.995 54.7457 122.016 54.5779C122.037 54.4018 121.978 54.22 122.094 54.0501C122.201 53.8949 122.325 53.8006 122.515 53.7817C122.927 53.7405 123.258 53.3663 123.258 52.9513C123.258 50.2919 123.258 47.6325 123.257 44.9731C123.256 44.5099 123.009 44.247 122.562 44.179C122.236 44.1292 122.018 43.8822 122.018 43.55C122.017 43.1204 122.017 43.1285 122.448 43.1181C123.358 43.0962 124.267 43.0694 125.177 43.0355C125.591 43.02 125.591 43.0102 125.591 43.4199C125.591 44.996 125.591 46.5722 125.591 48.1483Z" fill="black"/>
<path d="M94.7424 47.83C94.7426 49.2537 94.7403 50.6774 94.7442 52.1011C94.7452 52.4473 94.7629 52.7935 94.7799 53.1394C94.7906 53.3587 95.0624 53.5988 95.3345 53.6719C95.8243 53.8035 95.9735 53.8276 96.0096 54.4239C96.03 54.7612 96.0205 54.734 95.7334 54.7335C94.2815 54.731 92.8295 54.7304 91.3775 54.7361C91.2188 54.7367 91.1517 54.6916 91.1679 54.5305C91.1793 54.4165 91.1698 54.2998 91.1875 54.1871C91.2359 53.8795 91.481 53.7755 91.7298 53.6738C91.9099 53.6002 92.1088 53.5437 92.2543 53.4245C92.348 53.3478 92.399 53.1722 92.4025 53.0392C92.4249 52.1706 92.4358 51.3014 92.4379 50.4324C92.4421 48.6619 92.4402 46.8914 92.4354 45.1209C92.4349 44.936 92.4233 44.7439 92.3728 44.5679C92.2805 44.2469 91.9858 44.1451 91.7084 44.0768C91.4196 44.0057 91.2058 43.8267 91.1698 43.5329C91.1683 43.5209 91.1696 43.5086 91.1691 43.4965C91.1494 43.0266 91.165 43.0144 91.643 43.0097C92.584 43.0005 93.5251 42.987 94.4661 42.9745C94.7465 42.9707 94.743 42.9694 94.7428 43.2486C94.7416 44.7757 94.7422 46.3028 94.7424 47.83Z" fill="black"/>
<path d="M122.492 39.7737C122.488 38.9937 123.193 38.3133 123.986 38.2978C124.873 38.2805 125.531 39.0763 125.51 39.7879C125.483 40.7231 124.804 41.3122 123.984 41.3176C123.235 41.3226 122.479 40.584 122.492 39.7737Z" fill="black"/>
<path d="M105.359 45.5665H97.7695V47.7942H105.359V45.5665Z" fill="black"/>
<path d="M174.644 64.9215C176.146 64.9215 177.363 63.7619 177.363 62.3315C177.363 60.901 176.146 59.7415 174.644 59.7415C173.143 59.7415 171.926 60.901 171.926 62.3315C171.926 63.7619 173.143 64.9215 174.644 64.9215Z" fill="black"/>
</g>
<path d="M113.182 119.428C119.101 126.728 118.509 142.877 118.509 142.877V156.32H0.99987V60.9643C0.99987 60.9643 19.844 54.6752 28.5753 60.9643C35.8102 66.1755 38.2894 81.5987 38.2894 81.5987C38.2894 81.5987 63.3196 73.5049 75.2656 81.5987C85.408 88.4705 89.68 109.424 89.68 109.424C89.68 109.424 106.905 111.689 113.182 119.428Z" fill="white"/>
<path d="M118.503 142.564C118.503 142.564 118.876 127.196 112.857 120.045C106.68 112.706 90.6868 109.717 90.6868 109.717" stroke="black" stroke-width="1.61788" stroke-linecap="round"/>
<path d="M92.5371 118.969C92.5371 118.969 87.916 90.0595 73.9898 81.4967C58.6901 72.0895 28.0851 84.7351 28.0851 84.7351" stroke="black" stroke-width="1.61788" stroke-linecap="round"/>
<path d="M38.2871 81.0341C38.2871 81.0341 36.3041 67.7263 30.4045 62.5291C21.8431 54.9871 1.19241 61.1412 1.19241 61.1412" stroke="black" stroke-width="1.61788" stroke-linecap="round"/>
<defs>
<clipPath id="clip0_192_3930">
<rect width="93.59" height="32.5007" fill="white" transform="translate(89.9863 35.6378)"/>
</clipPath>
</defs>
</svg>
