<svg width="90" height="90" viewBox="0 0 90 90" fill="none" xmlns="http://www.w3.org/2000/svg">
<g clip-path="url(#clip0_192_2804)">
<path d="M0 0H90V90H0V0Z" fill="#FFC403"/>
<path d="M40.0063 39.6878V49.961H37.1966V44.1988L35.3197 46.9756H33.849L31.7856 44.1988V49.961H29.2173V39.6878H31.8075L34.7709 43.7159L37.427 39.6878H40.0063ZM40.8185 42.0146V39.6878H50.4112V42.0146H47.0527V49.961H44.188V42.0146H40.8185ZM60.9807 39.6878V49.961H58.6209L53.7917 44.089V49.961H51.2234V39.6878H53.7807L58.4014 45.3512V39.6878H60.9807Z" fill="black"/>
<path d="M44.9999 60.6951C36.7023 60.6951 28.8767 59.1476 22.9718 56.3268C16.7926 53.3744 13.3901 49.3573 13.3901 45C13.3901 40.6427 16.7926 36.6256 22.9718 33.6732C28.8767 30.8524 36.7023 29.3049 44.9999 29.3049C53.2975 29.3049 61.1231 30.8524 67.0279 33.6732C73.2072 36.6256 76.6097 40.6427 76.6097 45C76.6097 49.3573 73.2072 53.3744 67.0279 56.3268C61.1231 59.1476 53.2975 60.6951 44.9999 60.6951ZM44.9999 31.6207C37.0316 31.6207 29.5682 33.0915 23.9706 35.7695C18.6475 38.3158 15.706 41.5976 15.706 45.011C15.706 48.4244 18.6365 51.7061 23.9706 54.2415C29.5682 56.9195 37.0426 58.3902 44.9999 58.3902C52.9572 58.3902 60.4316 56.9195 66.0292 54.2415C71.3523 51.7061 74.2938 48.4134 74.2938 45.011C74.2938 41.6085 71.3633 38.3158 66.0292 35.7805C60.4316 33.0915 52.9682 31.6207 44.9999 31.6207Z" fill="black"/>
</g>
<defs>
<clipPath id="clip0_192_2804">
<rect width="90" height="90" fill="white"/>
</clipPath>
</defs>
</svg>
