<svg width="210" height="154" viewBox="0 0 210 154" fill="none" xmlns="http://www.w3.org/2000/svg">
<rect x="53.8398" y="51.5345" width="138.658" height="59.8917" rx="4.43642" fill="#F15046"/>
<rect x="64.7969" y="0.145874" width="144.703" height="100.929" rx="7.39404" fill="#FAF0E4"/>
<g clip-path="url(#clip0_192_3899)">
<path d="M99.2051 13.8465H172.543V87.1844H99.2051V13.8465Z" fill="#FFC403"/>
<path d="M131.803 46.1868V54.558H129.514V49.8626L127.984 52.1254H126.786L125.105 49.8626V54.558H123.012V46.1868H125.122L127.537 49.4691L129.702 46.1868H131.803ZM132.465 48.0828V46.1868H140.282V48.0828H137.545V54.558H135.211V48.0828H132.465ZM148.895 46.1868V54.558H146.972L143.037 49.7732V54.558H140.944V46.1868H143.028L146.793 50.8017V46.1868H148.895Z" fill="black"/>
<path d="M135.873 63.3049C129.112 63.3049 122.735 62.0438 117.923 59.7453C112.888 57.3394 110.115 54.0661 110.115 50.5154C110.115 46.9648 112.888 43.6914 117.923 41.2856C122.735 38.9871 129.112 37.726 135.873 37.726C142.634 37.726 149.011 38.9871 153.823 41.2856C158.858 43.6914 161.631 46.9648 161.631 50.5154C161.631 54.0661 158.858 57.3394 153.823 59.7453C149.011 62.0438 142.634 63.3049 135.873 63.3049ZM135.873 39.6131C129.38 39.6131 123.298 40.8116 118.737 42.9938C114.399 45.0688 112.002 47.7429 112.002 50.5244C112.002 53.3059 114.39 55.98 118.737 58.046C123.298 60.2282 129.389 61.4267 135.873 61.4267C142.357 61.4267 148.448 60.2282 153.009 58.046C157.347 55.98 159.744 53.2969 159.744 50.5244C159.744 47.7519 157.356 45.0688 153.009 43.0028C148.448 40.8116 142.366 39.6131 135.873 39.6131Z" fill="black"/>
</g>
<path d="M113.682 116.912C119.601 124.071 119.009 139.909 119.009 139.909V153.094H1.50016V59.5727C1.50016 59.5727 20.3443 53.4046 29.0756 59.5727C36.3104 64.6837 38.7896 79.8102 38.7896 79.8102C38.7896 79.8102 63.8197 71.8721 75.7657 79.8102C85.9081 86.5498 90.1801 107.1 90.1801 107.1C90.1801 107.1 107.405 109.321 113.682 116.912Z" fill="white"/>
<path d="M119.003 139.602C119.003 139.602 119.376 124.53 113.357 117.517C107.18 110.319 91.1869 107.388 91.1869 107.388" stroke="black" stroke-width="1.58675" stroke-linecap="round"/>
<path d="M93.0371 116.462C93.0371 116.462 88.416 88.1078 74.4898 79.7097C59.1902 70.4834 28.5852 82.8858 28.5852 82.8858" stroke="black" stroke-width="1.58675" stroke-linecap="round"/>
<path d="M38.7871 79.256C38.7871 79.256 36.8041 66.2041 30.9045 61.1069C22.3432 53.71 1.6925 59.7457 1.6925 59.7457" stroke="black" stroke-width="1.58675" stroke-linecap="round"/>
<defs>
<clipPath id="clip0_192_3899">
<rect x="99.2051" y="13.8464" width="73.3379" height="73.3379" rx="1.61182" fill="white"/>
</clipPath>
</defs>
</svg>
