<svg width="209" height="156" viewBox="0 0 209 156" fill="none" xmlns="http://www.w3.org/2000/svg">
<rect y="99.8393" width="126.317" height="55.7583" rx="4.13024" fill="#F15046"/>
<rect x="9.98242" y="51.9974" width="131.824" height="93.963" rx="6.88373" fill="#FAF0E4"/>
<path d="M84.5354 69.2765L84.5061 83.3957L84.4768 97.5148L83.129 94.2372V94.2288L81.3809 125.661C83.0997 129.829 84.0178 132.056 84.0275 132.065C84.0373 132.073 85.0139 132.124 86.1957 132.174C89.7701 132.325 94.2041 132.653 97.5734 133.015C98.3547 133.099 99.0189 133.141 99.0677 133.107C99.1165 133.073 99.1263 118.702 99.1165 101.162L99.0872 69.2765H84.5354Z" fill="url(#paint0_linear_192_3958)"/>
<path d="M58.2129 69.2342V101.154C58.2129 118.71 58.2324 133.09 58.2617 133.115C58.291 133.14 59.5509 133.031 61.0744 132.888C62.598 132.745 64.6977 132.561 65.7427 132.485C67.3444 132.367 72.1495 132.107 72.6964 132.098C72.8624 132.098 72.8722 131.384 72.8917 118.576L72.921 105.053L74.0832 107.877C74.259 108.314 74.3176 108.449 74.4934 108.877L76.2416 77.4536C75.8705 76.5544 76.0658 77.025 75.6458 75.9997C74.2199 72.5287 73.0089 69.5956 72.9601 69.4611L72.8624 69.2258H58.2129V69.2342Z" fill="url(#paint1_linear_192_3958)"/>
<path d="M58.2129 69.2342L72.9113 105.078V105.062L74.0735 107.885C80.5291 123.61 83.9962 132.048 84.0157 132.064C84.0255 132.073 85.0021 132.123 86.1839 132.174C89.7584 132.325 94.1923 132.653 97.5617 133.014C98.3333 133.098 99.0072 133.14 99.0462 133.106L84.4748 97.5061V97.5145L83.127 94.2369C81.8085 91.0348 80.9295 88.8918 75.6264 75.9997C74.2005 72.5287 72.9895 69.5956 72.9406 69.4611L72.843 69.2258H65.5279L58.2129 69.2342Z" fill="#E30A17"/>
<path d="M105.803 33.7791C100.411 27.1142 100.951 12.3692 100.951 12.3692V0.0941772H208V87.1612C208 87.1612 190.833 92.9035 182.879 87.1612C176.288 82.403 174.03 68.3204 174.03 68.3204C174.03 68.3204 151.227 75.7107 140.345 68.3204C131.105 62.046 127.213 42.914 127.213 42.914C127.213 42.914 111.521 40.8461 105.803 33.7791Z" fill="white"/>
<path d="M100.955 12.655C100.955 12.655 100.616 26.687 106.099 33.2163C111.726 39.917 126.296 42.6462 126.296 42.6462" stroke="black" stroke-width="1.47724" stroke-linecap="round"/>
<path d="M124.609 34.1985C124.609 34.1985 128.819 60.5954 141.506 68.4139C155.444 77.0034 183.325 65.457 183.325 65.457" stroke="black" stroke-width="1.47724" stroke-linecap="round"/>
<path d="M174.031 68.836C174.031 68.836 175.838 80.987 181.212 85.7324C189.012 92.6188 207.824 86.9997 207.824 86.9997" stroke="black" stroke-width="1.47724" stroke-linecap="round"/>
<defs>
<linearGradient id="paint0_linear_192_3958" x1="105.68" y1="117.011" x2="82.3891" y2="127.24" gradientUnits="userSpaceOnUse">
<stop stop-color="#B20610"/>
<stop offset="0.255959" stop-color="#B20610"/>
<stop offset="1" stop-color="#590004"/>
</linearGradient>
<linearGradient id="paint1_linear_192_3958" x1="51.1501" y1="83.2306" x2="76.3383" y2="72.2966" gradientUnits="userSpaceOnUse">
<stop stop-color="#B20610"/>
<stop offset="0.255959" stop-color="#B20610"/>
<stop offset="1" stop-color="#590004"/>
</linearGradient>
</defs>
</svg>
