<svg width="90" height="90" viewBox="0 0 90 90" fill="none" xmlns="http://www.w3.org/2000/svg">
<path d="M52.1983 5.85748L52.1623 23.184L52.1264 40.5105L50.4724 36.4883V36.478L48.3271 75.0501C50.4365 80.1655 51.5631 82.8986 51.575 82.9089C51.587 82.9192 52.7855 82.9811 54.2357 83.043C58.6221 83.2286 64.0633 83.6308 68.1981 84.0743C69.1568 84.1774 69.9718 84.229 70.0317 84.1877C70.0917 84.1465 70.1036 66.5106 70.0917 44.9865L70.0557 5.85748H52.1983Z" fill="url(#paint0_linear_192_2796)"/>
<path d="M19.895 5.8056V44.976C19.895 66.5207 19.919 84.167 19.9549 84.1979C19.9909 84.2289 21.5369 84.0948 23.4066 83.9195C25.2762 83.7441 27.853 83.5173 29.1354 83.4244C31.1009 83.28 36.9975 82.9603 37.6686 82.95C37.8724 82.95 37.8843 82.0734 37.9083 66.3557L37.9443 49.7614L39.3705 53.2267C39.5862 53.763 39.6581 53.928 39.8738 54.454L42.0191 15.8921C41.5637 14.7886 41.8034 15.3661 41.288 14.1079C39.5383 9.84846 38.0521 6.24908 37.9922 6.08406L37.8724 5.79529H19.895V5.8056Z" fill="url(#paint1_linear_192_2796)"/>
<path d="M19.895 5.8056L37.9324 49.7921V49.7715L39.3586 53.2368C47.2806 72.5331 51.5353 82.8877 51.5593 82.9083C51.5712 82.9186 52.7697 82.9805 54.2199 83.0424C58.6064 83.228 64.0476 83.6302 68.1824 84.0737C69.1292 84.1768 69.9562 84.2284 70.0041 84.1871L52.1226 40.4998V40.5101L50.4686 36.4879C48.8507 32.5585 47.772 29.9286 41.2642 14.1079C39.5144 9.84844 38.0283 6.24907 37.9683 6.08406L37.8485 5.79529H28.8717L19.895 5.8056Z" fill="#E30A17"/>
<defs>
<linearGradient id="paint0_linear_192_2796" x1="78.1459" y1="64.4356" x2="49.5644" y2="76.9875" gradientUnits="userSpaceOnUse">
<stop stop-color="#B20610"/>
<stop offset="0.255959" stop-color="#B20610"/>
<stop offset="1" stop-color="#590004"/>
</linearGradient>
<linearGradient id="paint1_linear_192_2796" x1="11.2278" y1="22.9814" x2="42.1378" y2="9.56358" gradientUnits="userSpaceOnUse">
<stop stop-color="#B20610"/>
<stop offset="0.255959" stop-color="#B20610"/>
<stop offset="1" stop-color="#590004"/>
</linearGradient>
</defs>
</svg>
