<svg width="209" height="156" viewBox="0 0 209 156" fill="none" xmlns="http://www.w3.org/2000/svg">
<rect y="99.8394" width="126.317" height="55.7583" rx="4.13024" fill="#F15046"/>
<rect x="9.98047" y="51.9976" width="131.824" height="93.963" rx="6.88373" fill="#FAF0E4"/>
<path d="M84.5373 69.2769L84.508 83.396L84.4787 97.5152L83.131 94.2375V94.2291L81.3828 125.661C83.1017 129.83 84.0197 132.057 84.0295 132.065C84.0393 132.074 85.0159 132.124 86.1976 132.174C89.7721 132.326 94.206 132.653 97.5754 133.015C98.3567 133.099 99.0208 133.141 99.0696 133.107C99.1185 133.074 99.1282 118.702 99.1185 101.163L99.0892 69.2769H84.5373Z" fill="url(#paint0_linear_109_1836)"/>
<path d="M58.2109 69.2345V101.154C58.2109 118.711 58.2305 133.09 58.2598 133.116C58.2891 133.141 59.5489 133.031 61.0725 132.889C62.596 132.746 64.6958 132.561 65.7408 132.485C67.3425 132.368 72.1475 132.107 72.6944 132.099C72.8605 132.099 72.8702 131.384 72.8898 118.576L72.9191 105.054L74.0813 107.877C74.257 108.314 74.3156 108.449 74.4914 108.878L76.2396 77.4539C75.8685 76.5546 76.0638 77.0253 75.6439 75.9999C74.218 72.529 73.007 69.5959 72.9581 69.4614L72.8605 69.2261H58.2109V69.2345Z" fill="url(#paint1_linear_109_1836)"/>
<path d="M58.2109 69.2345L72.9094 105.079V105.062L74.0716 107.886C80.5272 123.61 83.9942 132.048 84.0138 132.065C84.0235 132.073 85.0002 132.123 86.1819 132.174C89.7564 132.325 94.1904 132.653 97.5598 133.014C98.3313 133.098 99.0052 133.14 99.0443 133.107L84.4728 97.5064V97.5148L83.125 94.2371C81.8066 91.0351 80.9276 88.892 75.6244 75.9999C74.1985 72.5289 72.9875 69.5959 72.9387 69.4614L72.841 69.2261H65.526L58.2109 69.2345Z" fill="#E30A17"/>
<path d="M105.805 33.7792C100.413 27.1142 100.952 12.3693 100.952 12.3693V0.0942383H208.002V87.1612C208.002 87.1612 190.835 92.9036 182.881 87.1612C176.29 82.403 174.032 68.3205 174.032 68.3205C174.032 68.3205 151.229 75.7107 140.347 68.3205C131.107 62.046 127.215 42.9141 127.215 42.9141C127.215 42.9141 111.523 40.8461 105.805 33.7792Z" fill="white"/>
<path d="M100.957 12.6553C100.957 12.6553 100.618 26.6873 106.101 33.2166C111.728 39.9173 126.298 42.6465 126.298 42.6465" stroke="black" stroke-width="1.47724" stroke-linecap="round"/>
<path d="M124.613 34.1987C124.613 34.1987 128.823 60.5956 141.51 68.4141C155.448 77.0036 183.328 65.4572 183.328 65.4572" stroke="black" stroke-width="1.47724" stroke-linecap="round"/>
<path d="M174.031 68.8364C174.031 68.8364 175.838 80.9875 181.212 85.7329C189.012 92.6192 207.824 87.0001 207.824 87.0001" stroke="black" stroke-width="1.47724" stroke-linecap="round"/>
<defs>
<linearGradient id="paint0_linear_109_1836" x1="105.682" y1="117.012" x2="82.391" y2="127.24" gradientUnits="userSpaceOnUse">
<stop stop-color="#B20610"/>
<stop offset="0.255959" stop-color="#B20610"/>
<stop offset="1" stop-color="#590004"/>
</linearGradient>
<linearGradient id="paint1_linear_109_1836" x1="51.1481" y1="83.2308" x2="76.3364" y2="72.2968" gradientUnits="userSpaceOnUse">
<stop stop-color="#B20610"/>
<stop offset="0.255959" stop-color="#B20610"/>
<stop offset="1" stop-color="#590004"/>
</linearGradient>
</defs>
</svg>
