<svg width="31" height="30" viewBox="0 0 31 30" fill="none" xmlns="http://www.w3.org/2000/svg">
<path d="M22.4681 11.2638C22.4773 11.2638 22.4867 11.2638 22.4961 11.2638C25.6027 11.2638 28.1211 13.7868 28.1211 16.8991C28.1211 19.7998 25.9336 22.1885 23.1211 22.5M22.4681 11.2638C22.4866 11.0576 22.4961 10.8487 22.4961 10.6376C22.4961 6.83369 19.4181 3.75 15.6211 3.75C12.0251 3.75 9.07401 6.51584 8.77162 10.0399M22.4681 11.2638C22.3402 12.6845 21.7818 13.9808 20.9246 15.0206M8.77162 10.0399C5.60107 10.3422 3.12109 13.0174 3.12109 16.2729C3.12109 19.3021 5.26829 21.829 8.12109 22.4091M8.77162 10.0399C8.96892 10.0211 9.16888 10.0115 9.37109 10.0115C10.7784 10.0115 12.077 10.4774 13.1217 11.2638" stroke="#48361E" stroke-width="1.25" stroke-linejoin="round"/>
<path d="M15.625 16.2495V25.5681M11.875 22.4995L15.625 26.2495L19.375 22.4995" stroke="#48361E" stroke-width="1.25"/>
</svg>
